<control>label_cc74=CutOff label_cc71=Resonance set_hdcc74=0.5 set_hdcc71=0.5 label_cc76=Vibrato Rate label_cc77=Vibrato Depth label_cc78=Vibrato Delay set_hdcc76=0.32 set_hdcc77=0.5 set_hdcc78=0.1 set_cc16=127 label_cc16=Wood BlockHi set_cc17=127 label_cc17=No Wave set_cc18=127 label_cc18=No Wave set_cc19=127 label_cc19=No Wave
<group>lovel=1 hivel=127 volume=12 amp_velcurve_0=0 amp_velcurve_1=1 amp_velcurve_127=1 pitch_oncc136=0 fil_type=lpf_2p cutoff=11025 cutoff_cc74=6912 cutoff_curvecc74=1 cutoff_cc133=8890 cutoff_curvecc133=133 eg4_cutoff=-4067.7165354 fil2_type=lpf_4p cutoff2=22050 eg4_sustain=4 resonance_oncc71=40 resonance_curvecc71=1 resonance=5.6692913 resonance_oncc131=0 group_amplitude=92.1259843 volume_curvecc131=201 volume_oncc131=23.015873 pan_keytrack=0 pan_oncc136=0 eg9_sustain=2 eg9_time1=0 eg9_time1_oncc78=5 eg9_level1=0 eg9_time2=0 eg9_time2_oncc78=5 eg9_level2=1 eg9_level2_oncc77=-2 lfo9_wave=1 lfo9_delay=0 lfo9_delay_oncc78=5 lfo9_fade=0 lfo9_fade_oncc78=5 lfo9_freq=0 lfo9_freq_oncc76=20 lfo9_pitch=0 lfo9_pitch_oncc77=555 lfo9_pitch_curvecc77=77 eg9_pitch_oncc77=3.5
<region>sample=../Sample/Wave91.wav lokey=0 hikey=0 pitch_keycenter=66 tune=2145 pan=0 eg2_cutoff=4864 eg2_sustain=4 eg2_time1=0 eg2_time2=0 eg2_time3=0.0489896 eg2_time4=0 eg2_time5=0 eg2_level1=0 eg2_level2=1 eg2_level3=0.9055118 eg2_level4=0.9055118 eg2_level5=1 eg3_amplitude=100 eg3_sustain=4 eg3_time1=0 eg3_time2=0 eg3_time3=0.3624562 eg3_time4=0.2066316 eg3_time5=0.5679115 eg3_level1=0 eg3_level2=1 eg3_level3=0.9117225 eg3_level4=0 eg3_level5=0 amplitude_cc16=83.4645669 ampeg_attack=0 ampeg_release=0.5679115 eg4_time1=0 eg4_time2=0 eg4_time3=0.3624562 eg4_time4=0.2066316 eg4_time5=0.5679115 eg4_level1=1 eg4_level2=1 eg4_level3=1 eg4_level4=1 eg4_level5=1
<region>sample=../Sample/Wave91.wav lokey=1 hikey=1 pitch_keycenter=66 tune=2095 pan=0 eg2_cutoff=4864 eg2_sustain=4 eg2_time1=0 eg2_time2=0 eg2_time3=0.0489896 eg2_time4=0 eg2_time5=0 eg2_level1=0 eg2_level2=1 eg2_level3=0.9055118 eg2_level4=0.9055118 eg2_level5=1 eg3_amplitude=100 eg3_sustain=4 eg3_time1=0 eg3_time2=0 eg3_time3=0.3545304 eg3_time4=0.2021132 eg3_time5=0.555493 eg3_level1=0 eg3_level2=1 eg3_level3=0.9117225 eg3_level4=0 eg3_level5=0 amplitude_cc16=83.4645669 ampeg_attack=0 ampeg_release=0.555493 eg4_time1=0 eg4_time2=0 eg4_time3=0.3545304 eg4_time4=0.2021132 eg4_time5=0.555493 eg4_level1=1 eg4_level2=1 eg4_level3=1 eg4_level4=1 eg4_level5=1
<region>sample=../Sample/Wave91.wav lokey=2 hikey=2 pitch_keycenter=66 tune=2045 pan=0 eg2_cutoff=4864 eg2_sustain=4 eg2_time1=0 eg2_time2=0 eg2_time3=0.0489896 eg2_time4=0 eg2_time5=0 eg2_level1=0 eg2_level2=1 eg2_level3=0.9055118 eg2_level4=0.9055118 eg2_level5=1 eg3_amplitude=100 eg3_sustain=4 eg3_time1=0 eg3_time2=0 eg3_time3=0.3467779 eg3_time4=0.1976937 eg3_time5=0.5433461 eg3_level1=0 eg3_level2=1 eg3_level3=0.9117225 eg3_level4=0 eg3_level5=0 amplitude_cc16=83.4645669 ampeg_attack=0 ampeg_release=0.5433461 eg4_time1=0 eg4_time2=0 eg4_time3=0.3467779 eg4_time4=0.1976937 eg4_time5=0.5433461 eg4_level1=1 eg4_level2=1 eg4_level3=1 eg4_level4=1 eg4_level5=1
<region>sample=../Sample/Wave91.wav lokey=3 hikey=3 pitch_keycenter=66 tune=1995 pan=0 eg2_cutoff=4864 eg2_sustain=4 eg2_time1=0 eg2_time2=0 eg2_time3=0.0489896 eg2_time4=0 eg2_time5=0 eg2_level1=0 eg2_level2=1 eg2_level3=0.9055118 eg2_level4=0.9055118 eg2_level5=1 eg3_amplitude=100 eg3_sustain=4 eg3_time1=0 eg3_time2=0 eg3_time3=0.339195 eg3_time4=0.1933707 eg3_time5=0.5314648 eg3_level1=0 eg3_level2=1 eg3_level3=0.9117225 eg3_level4=0 eg3_level5=0 amplitude_cc16=83.4645669 ampeg_attack=0 ampeg_release=0.5314648 eg4_time1=0 eg4_time2=0 eg4_time3=0.339195 eg4_time4=0.1933707 eg4_time5=0.5314648 eg4_level1=1 eg4_level2=1 eg4_level3=1 eg4_level4=1 eg4_level5=1
<region>sample=../Sample/Wave91.wav lokey=4 hikey=4 pitch_keycenter=66 tune=1945 pan=0 eg2_cutoff=4864 eg2_sustain=4 eg2_time1=0 eg2_time2=0 eg2_time3=0.0489896 eg2_time4=0 eg2_time5=0 eg2_level1=0 eg2_level2=1 eg2_level3=0.9055118 eg2_level4=0.9055118 eg2_level5=1 eg3_amplitude=100 eg3_sustain=4 eg3_time1=0 eg3_time2=0 eg3_time3=0.3317778 eg3_time4=0.1891423 eg3_time5=0.5198434 eg3_level1=0 eg3_level2=1 eg3_level3=0.9117225 eg3_level4=0 eg3_level5=0 amplitude_cc16=83.4645669 ampeg_attack=0 ampeg_release=0.5198434 eg4_time1=0 eg4_time2=0 eg4_time3=0.3317778 eg4_time4=0.1891423 eg4_time5=0.5198434 eg4_level1=1 eg4_level2=1 eg4_level3=1 eg4_level4=1 eg4_level5=1
<region>sample=../Sample/Wave91.wav lokey=5 hikey=5 pitch_keycenter=66 tune=1895 pan=0 eg2_cutoff=4864 eg2_sustain=4 eg2_time1=0 eg2_time2=0 eg2_time3=0.0489896 eg2_time4=0 eg2_time5=0 eg2_level1=0 eg2_level2=1 eg2_level3=0.9055118 eg2_level4=0.9055118 eg2_level5=1 eg3_amplitude=100 eg3_sustain=4 eg3_time1=0 eg3_time2=0 eg3_time3=0.3245229 eg3_time4=0.1850063 eg3_time5=0.508476 eg3_level1=0 eg3_level2=1 eg3_level3=0.9117225 eg3_level4=0 eg3_level5=0 amplitude_cc16=83.4645669 ampeg_attack=0 ampeg_release=0.508476 eg4_time1=0 eg4_time2=0 eg4_time3=0.3245229 eg4_time4=0.1850063 eg4_time5=0.508476 eg4_level1=1 eg4_level2=1 eg4_level3=1 eg4_level4=1 eg4_level5=1
<region>sample=../Sample/Wave91.wav lokey=6 hikey=6 pitch_keycenter=66 tune=1845 pan=0 eg2_cutoff=4864 eg2_sustain=4 eg2_time1=0 eg2_time2=0 eg2_time3=0.0489896 eg2_time4=0 eg2_time5=0 eg2_level1=0 eg2_level2=1 eg2_level3=0.9055118 eg2_level4=0.9055118 eg2_level5=1 eg3_amplitude=100 eg3_sustain=4 eg3_time1=0 eg3_time2=0 eg3_time3=0.3174266 eg3_time4=0.1809608 eg3_time5=0.4973572 eg3_level1=0 eg3_level2=1 eg3_level3=0.9117225 eg3_level4=0 eg3_level5=0 amplitude_cc16=83.4645669 ampeg_attack=0 ampeg_release=0.4973572 eg4_time1=0 eg4_time2=0 eg4_time3=0.3174266 eg4_time4=0.1809608 eg4_time5=0.4973572 eg4_level1=1 eg4_level2=1 eg4_level3=1 eg4_level4=1 eg4_level5=1
<region>sample=../Sample/Wave91.wav lokey=7 hikey=7 pitch_keycenter=66 tune=1795 pan=0 eg2_cutoff=4864 eg2_sustain=4 eg2_time1=0 eg2_time2=0 eg2_time3=0.0489896 eg2_time4=0 eg2_time5=0 eg2_level1=0 eg2_level2=1 eg2_level3=0.9055118 eg2_level4=0.9055118 eg2_level5=1 eg3_amplitude=100 eg3_sustain=4 eg3_time1=0 eg3_time2=0 eg3_time3=0.3104855 eg3_time4=0.1770038 eg3_time5=0.4864816 eg3_level1=0 eg3_level2=1 eg3_level3=0.9117225 eg3_level4=0 eg3_level5=0 amplitude_cc16=83.4645669 ampeg_attack=0 ampeg_release=0.4864816 eg4_time1=0 eg4_time2=0 eg4_time3=0.3104855 eg4_time4=0.1770038 eg4_time5=0.4864816 eg4_level1=1 eg4_level2=1 eg4_level3=1 eg4_level4=1 eg4_level5=1
<region>sample=../Sample/Wave91.wav lokey=8 hikey=8 pitch_keycenter=66 tune=1745 pan=0 eg2_cutoff=4864 eg2_sustain=4 eg2_time1=0 eg2_time2=0 eg2_time3=0.0489896 eg2_time4=0 eg2_time5=0 eg2_level1=0 eg2_level2=1 eg2_level3=0.9055118 eg2_level4=0.9055118 eg2_level5=1 eg3_amplitude=100 eg3_sustain=4 eg3_time1=0 eg3_time2=0 eg3_time3=0.3036961 eg3_time4=0.1731333 eg3_time5=0.4758437 eg3_level1=0 eg3_level2=1 eg3_level3=0.9117225 eg3_level4=0 eg3_level5=0 amplitude_cc16=83.4645669 ampeg_attack=0 ampeg_release=0.4758437 eg4_time1=0 eg4_time2=0 eg4_time3=0.3036961 eg4_time4=0.1731333 eg4_time5=0.4758437 eg4_level1=1 eg4_level2=1 eg4_level3=1 eg4_level4=1 eg4_level5=1
<region>sample=../Sample/Wave91.wav lokey=9 hikey=9 pitch_keycenter=66 tune=1695 pan=0 eg2_cutoff=4864 eg2_sustain=4 eg2_time1=0 eg2_time2=0 eg2_time3=0.0489896 eg2_time4=0 eg2_time5=0 eg2_level1=0 eg2_level2=1 eg2_level3=0.9055118 eg2_level4=0.9055118 eg2_level5=1 eg3_amplitude=100 eg3_sustain=4 eg3_time1=0 eg3_time2=0 eg3_time3=0.2970552 eg3_time4=0.1693474 eg3_time5=0.4654385 eg3_level1=0 eg3_level2=1 eg3_level3=0.9117225 eg3_level4=0 eg3_level5=0 amplitude_cc16=83.4645669 ampeg_attack=0 ampeg_release=0.4654385 eg4_time1=0 eg4_time2=0 eg4_time3=0.2970552 eg4_time4=0.1693474 eg4_time5=0.4654385 eg4_level1=1 eg4_level2=1 eg4_level3=1 eg4_level4=1 eg4_level5=1
<region>sample=../Sample/Wave91.wav lokey=10 hikey=10 pitch_keycenter=66 tune=1645 pan=0 eg2_cutoff=4864 eg2_sustain=4 eg2_time1=0 eg2_time2=0 eg2_time3=0.0489896 eg2_time4=0 eg2_time5=0 eg2_level1=0 eg2_level2=1 eg2_level3=0.9055118 eg2_level4=0.9055118 eg2_level5=1 eg3_amplitude=100 eg3_sustain=4 eg3_time1=0 eg3_time2=0 eg3_time3=0.2905595 eg3_time4=0.1656443 eg3_time5=0.4552608 eg3_level1=0 eg3_level2=1 eg3_level3=0.9117225 eg3_level4=0 eg3_level5=0 amplitude_cc16=83.4645669 ampeg_attack=0 ampeg_release=0.4552608 eg4_time1=0 eg4_time2=0 eg4_time3=0.2905595 eg4_time4=0.1656443 eg4_time5=0.4552608 eg4_level1=1 eg4_level2=1 eg4_level3=1 eg4_level4=1 eg4_level5=1
<region>sample=../Sample/Wave91.wav lokey=11 hikey=11 pitch_keycenter=66 tune=1595 pan=0 eg2_cutoff=4864 eg2_sustain=4 eg2_time1=0 eg2_time2=0 eg2_time3=0.0489896 eg2_time4=0 eg2_time5=0 eg2_level1=0 eg2_level2=1 eg2_level3=0.9055118 eg2_level4=0.9055118 eg2_level5=1 eg3_amplitude=100 eg3_sustain=4 eg3_time1=0 eg3_time2=0 eg3_time3=0.2842059 eg3_time4=0.1620222 eg3_time5=0.4453057 eg3_level1=0 eg3_level2=1 eg3_level3=0.9117225 eg3_level4=0 eg3_level5=0 amplitude_cc16=83.4645669 ampeg_attack=0 ampeg_release=0.4453057 eg4_time1=0 eg4_time2=0 eg4_time3=0.2842059 eg4_time4=0.1620222 eg4_time5=0.4453057 eg4_level1=1 eg4_level2=1 eg4_level3=1 eg4_level4=1 eg4_level5=1
<region>sample=../Sample/Wave91.wav lokey=12 hikey=12 pitch_keycenter=66 tune=1545 pan=0 eg2_cutoff=4864 eg2_sustain=4 eg2_time1=0 eg2_time2=0 eg2_time3=0.0489896 eg2_time4=0 eg2_time5=0 eg2_level1=0 eg2_level2=1 eg2_level3=0.9055118 eg2_level4=0.9055118 eg2_level5=1 eg3_amplitude=100 eg3_sustain=4 eg3_time1=0 eg3_time2=0 eg3_time3=0.2779912 eg3_time4=0.1584792 eg3_time5=0.4355682 eg3_level1=0 eg3_level2=1 eg3_level3=0.9117225 eg3_level4=0 eg3_level5=0 amplitude_cc16=83.4645669 ampeg_attack=0 ampeg_release=0.4355682 eg4_time1=0 eg4_time2=0 eg4_time3=0.2779912 eg4_time4=0.1584792 eg4_time5=0.4355682 eg4_level1=1 eg4_level2=1 eg4_level3=1 eg4_level4=1 eg4_level5=1
<region>sample=../Sample/Wave91.wav lokey=13 hikey=13 pitch_keycenter=66 tune=1495 pan=0 eg2_cutoff=4864 eg2_sustain=4 eg2_time1=0 eg2_time2=0 eg2_time3=0.0489896 eg2_time4=0 eg2_time5=0 eg2_level1=0 eg2_level2=1 eg2_level3=0.9055118 eg2_level4=0.9055118 eg2_level5=1 eg3_amplitude=100 eg3_sustain=4 eg3_time1=0 eg3_time2=0 eg3_time3=0.2719124 eg3_time4=0.1550138 eg3_time5=0.4260437 eg3_level1=0 eg3_level2=1 eg3_level3=0.9117225 eg3_level4=0 eg3_level5=0 amplitude_cc16=83.4645669 ampeg_attack=0 ampeg_release=0.4260437 eg4_time1=0 eg4_time2=0 eg4_time3=0.2719124 eg4_time4=0.1550138 eg4_time5=0.4260437 eg4_level1=1 eg4_level2=1 eg4_level3=1 eg4_level4=1 eg4_level5=1
<region>sample=../Sample/Wave91.wav lokey=14 hikey=14 pitch_keycenter=66 tune=1445 pan=0 eg2_cutoff=4864 eg2_sustain=4 eg2_time1=0 eg2_time2=0 eg2_time3=0.0489896 eg2_time4=0 eg2_time5=0 eg2_level1=0 eg2_level2=1 eg2_level3=0.9055118 eg2_level4=0.9055118 eg2_level5=1 eg3_amplitude=100 eg3_sustain=4 eg3_time1=0 eg3_time2=0 eg3_time3=0.2659665 eg3_time4=0.1516241 eg3_time5=0.4167275 eg3_level1=0 eg3_level2=1 eg3_level3=0.9117225 eg3_level4=0 eg3_level5=0 amplitude_cc16=83.4645669 ampeg_attack=0 ampeg_release=0.4167275 eg4_time1=0 eg4_time2=0 eg4_time3=0.2659665 eg4_time4=0.1516241 eg4_time5=0.4167275 eg4_level1=1 eg4_level2=1 eg4_level3=1 eg4_level4=1 eg4_level5=1
<region>sample=../Sample/Wave91.wav lokey=15 hikey=15 pitch_keycenter=66 tune=1395 pan=0 eg2_cutoff=4864 eg2_sustain=4 eg2_time1=0 eg2_time2=0 eg2_time3=0.0489896 eg2_time4=0 eg2_time5=0 eg2_level1=0 eg2_level2=1 eg2_level3=0.9055118 eg2_level4=0.9055118 eg2_level5=1 eg3_amplitude=100 eg3_sustain=4 eg3_time1=0 eg3_time2=0 eg3_time3=0.2601507 eg3_time4=0.1483086 eg3_time5=0.4076149 eg3_level1=0 eg3_level2=1 eg3_level3=0.9117225 eg3_level4=0 eg3_level5=0 amplitude_cc16=83.4645669 ampeg_attack=0 ampeg_release=0.4076149 eg4_time1=0 eg4_time2=0 eg4_time3=0.2601507 eg4_time4=0.1483086 eg4_time5=0.4076149 eg4_level1=1 eg4_level2=1 eg4_level3=1 eg4_level4=1 eg4_level5=1
<region>sample=../Sample/Wave91.wav lokey=16 hikey=16 pitch_keycenter=66 tune=1345 pan=0 eg2_cutoff=4864 eg2_sustain=4 eg2_time1=0 eg2_time2=0 eg2_time3=0.0489896 eg2_time4=0 eg2_time5=0 eg2_level1=0 eg2_level2=1 eg2_level3=0.9055118 eg2_level4=0.9055118 eg2_level5=1 eg3_amplitude=100 eg3_sustain=4 eg3_time1=0 eg3_time2=0 eg3_time3=0.254462 eg3_time4=0.1450655 eg3_time5=0.3987017 eg3_level1=0 eg3_level2=1 eg3_level3=0.9117225 eg3_level4=0 eg3_level5=0 amplitude_cc16=83.4645669 ampeg_attack=0 ampeg_release=0.3987017 eg4_time1=0 eg4_time2=0 eg4_time3=0.254462 eg4_time4=0.1450655 eg4_time5=0.3987017 eg4_level1=1 eg4_level2=1 eg4_level3=1 eg4_level4=1 eg4_level5=1
<region>sample=../Sample/Wave91.wav lokey=17 hikey=17 pitch_keycenter=66 tune=1295 pan=0 eg2_cutoff=4864 eg2_sustain=4 eg2_time1=0 eg2_time2=0 eg2_time3=0.0489896 eg2_time4=0 eg2_time5=0 eg2_level1=0 eg2_level2=1 eg2_level3=0.9055118 eg2_level4=0.9055118 eg2_level5=1 eg3_amplitude=100 eg3_sustain=4 eg3_time1=0 eg3_time2=0 eg3_time3=0.2488977 eg3_time4=0.1418934 eg3_time5=0.3899833 eg3_level1=0 eg3_level2=1 eg3_level3=0.9117225 eg3_level4=0 eg3_level5=0 amplitude_cc16=83.4645669 ampeg_attack=0 ampeg_release=0.3899833 eg4_time1=0 eg4_time2=0 eg4_time3=0.2488977 eg4_time4=0.1418934 eg4_time5=0.3899833 eg4_level1=1 eg4_level2=1 eg4_level3=1 eg4_level4=1 eg4_level5=1
<region>sample=../Sample/Wave91.wav lokey=18 hikey=18 pitch_keycenter=66 tune=1245 pan=0 eg2_cutoff=4864 eg2_sustain=4 eg2_time1=0 eg2_time2=0 eg2_time3=0.0489896 eg2_time4=0 eg2_time5=0 eg2_level1=0 eg2_level2=1 eg2_level3=0.9055118 eg2_level4=0.9055118 eg2_level5=1 eg3_amplitude=100 eg3_sustain=4 eg3_time1=0 eg3_time2=0 eg3_time3=0.2434551 eg3_time4=0.1387906 eg3_time5=0.3814556 eg3_level1=0 eg3_level2=1 eg3_level3=0.9117225 eg3_level4=0 eg3_level5=0 amplitude_cc16=83.4645669 ampeg_attack=0 ampeg_release=0.3814556 eg4_time1=0 eg4_time2=0 eg4_time3=0.2434551 eg4_time4=0.1387906 eg4_time5=0.3814556 eg4_level1=1 eg4_level2=1 eg4_level3=1 eg4_level4=1 eg4_level5=1
<region>sample=../Sample/Wave91.wav lokey=19 hikey=19 pitch_keycenter=66 tune=1195 pan=0 eg2_cutoff=4864 eg2_sustain=4 eg2_time1=0 eg2_time2=0 eg2_time3=0.0489896 eg2_time4=0 eg2_time5=0 eg2_level1=0 eg2_level2=1 eg2_level3=0.9055118 eg2_level4=0.9055118 eg2_level5=1 eg3_amplitude=100 eg3_sustain=4 eg3_time1=0 eg3_time2=0 eg3_time3=0.2381315 eg3_time4=0.1357557 eg3_time5=0.3731143 eg3_level1=0 eg3_level2=1 eg3_level3=0.9117225 eg3_level4=0 eg3_level5=0 amplitude_cc16=83.4645669 ampeg_attack=0 ampeg_release=0.3731143 eg4_time1=0 eg4_time2=0 eg4_time3=0.2381315 eg4_time4=0.1357557 eg4_time5=0.3731143 eg4_level1=1 eg4_level2=1 eg4_level3=1 eg4_level4=1 eg4_level5=1
<region>sample=../Sample/Wave91.wav lokey=20 hikey=20 pitch_keycenter=66 tune=1145 pan=0 eg2_cutoff=4864 eg2_sustain=4 eg2_time1=0 eg2_time2=0 eg2_time3=0.0489896 eg2_time4=0 eg2_time5=0 eg2_level1=0 eg2_level2=1 eg2_level3=0.9055118 eg2_level4=0.9055118 eg2_level5=1 eg3_amplitude=100 eg3_sustain=4 eg3_time1=0 eg3_time2=0 eg3_time3=0.2329243 eg3_time4=0.1327872 eg3_time5=0.3649555 eg3_level1=0 eg3_level2=1 eg3_level3=0.9117225 eg3_level4=0 eg3_level5=0 amplitude_cc16=83.4645669 ampeg_attack=0 ampeg_release=0.3649555 eg4_time1=0 eg4_time2=0 eg4_time3=0.2329243 eg4_time4=0.1327872 eg4_time5=0.3649555 eg4_level1=1 eg4_level2=1 eg4_level3=1 eg4_level4=1 eg4_level5=1
<region>sample=../Sample/Wave91.wav lokey=21 hikey=21 pitch_keycenter=66 tune=1095 pan=0 eg2_cutoff=4864 eg2_sustain=4 eg2_time1=0 eg2_time2=0 eg2_time3=0.0489896 eg2_time4=0 eg2_time5=0 eg2_level1=0 eg2_level2=1 eg2_level3=0.9055118 eg2_level4=0.9055118 eg2_level5=1 eg3_amplitude=100 eg3_sustain=4 eg3_time1=0 eg3_time2=0 eg3_time3=0.227831 eg3_time4=0.1298835 eg3_time5=0.356975 eg3_level1=0 eg3_level2=1 eg3_level3=0.9117225 eg3_level4=0 eg3_level5=0 amplitude_cc16=83.4645669 ampeg_attack=0 ampeg_release=0.356975 eg4_time1=0 eg4_time2=0 eg4_time3=0.227831 eg4_time4=0.1298835 eg4_time5=0.356975 eg4_level1=1 eg4_level2=1 eg4_level3=1 eg4_level4=1 eg4_level5=1
<region>sample=../Sample/Wave91.wav lokey=22 hikey=22 pitch_keycenter=66 tune=1045 pan=0 eg2_cutoff=4864 eg2_sustain=4 eg2_time1=0 eg2_time2=0 eg2_time3=0.0489896 eg2_time4=0 eg2_time5=0 eg2_level1=0 eg2_level2=1 eg2_level3=0.9055118 eg2_level4=0.9055118 eg2_level5=1 eg3_amplitude=100 eg3_sustain=4 eg3_time1=0 eg3_time2=0 eg3_time3=0.222849 eg3_time4=0.1270434 eg3_time5=0.3491691 eg3_level1=0 eg3_level2=1 eg3_level3=0.9117225 eg3_level4=0 eg3_level5=0 amplitude_cc16=83.4645669 ampeg_attack=0 ampeg_release=0.3491691 eg4_time1=0 eg4_time2=0 eg4_time3=0.222849 eg4_time4=0.1270434 eg4_time5=0.3491691 eg4_level1=1 eg4_level2=1 eg4_level3=1 eg4_level4=1 eg4_level5=1
<region>sample=../Sample/Wave91.wav lokey=23 hikey=23 pitch_keycenter=66 tune=995 pan=0 eg2_cutoff=4864 eg2_sustain=4 eg2_time1=0 eg2_time2=0 eg2_time3=0.0489896 eg2_time4=0 eg2_time5=0 eg2_level1=0 eg2_level2=1 eg2_level3=0.9055118 eg2_level4=0.9055118 eg2_level5=1 eg3_amplitude=100 eg3_sustain=4 eg3_time1=0 eg3_time2=0 eg3_time3=0.217976 eg3_time4=0.1242653 eg3_time5=0.3415339 eg3_level1=0 eg3_level2=1 eg3_level3=0.9117225 eg3_level4=0 eg3_level5=0 amplitude_cc16=83.4645669 ampeg_attack=0 ampeg_release=0.3415339 eg4_time1=0 eg4_time2=0 eg4_time3=0.217976 eg4_time4=0.1242653 eg4_time5=0.3415339 eg4_level1=1 eg4_level2=1 eg4_level3=1 eg4_level4=1 eg4_level5=1
<region>sample=../Sample/Wave91.wav lokey=24 hikey=24 pitch_keycenter=66 tune=945 pan=0 eg2_cutoff=4864 eg2_sustain=4 eg2_time1=0 eg2_time2=0 eg2_time3=0.0489896 eg2_time4=0 eg2_time5=0 eg2_level1=0 eg2_level2=1 eg2_level3=0.9055118 eg2_level4=0.9055118 eg2_level5=1 eg3_amplitude=100 eg3_sustain=4 eg3_time1=0 eg3_time2=0 eg3_time3=0.2132095 eg3_time4=0.121548 eg3_time5=0.3340656 eg3_level1=0 eg3_level2=1 eg3_level3=0.9117225 eg3_level4=0 eg3_level5=0 amplitude_cc16=83.4645669 ampeg_attack=0 ampeg_release=0.3340656 eg4_time1=0 eg4_time2=0 eg4_time3=0.2132095 eg4_time4=0.121548 eg4_time5=0.3340656 eg4_level1=1 eg4_level2=1 eg4_level3=1 eg4_level4=1 eg4_level5=1
<region>sample=../Sample/Wave91.wav lokey=25 hikey=25 pitch_keycenter=66 tune=895 pan=0 eg2_cutoff=4864 eg2_sustain=4 eg2_time1=0 eg2_time2=0 eg2_time3=0.0489896 eg2_time4=0 eg2_time5=0 eg2_level1=0 eg2_level2=1 eg2_level3=0.9055118 eg2_level4=0.9055118 eg2_level5=1 eg3_amplitude=100 eg3_sustain=4 eg3_time1=0 eg3_time2=0 eg3_time3=0.2085473 eg3_time4=0.1188901 eg3_time5=0.3267606 eg3_level1=0 eg3_level2=1 eg3_level3=0.9117225 eg3_level4=0 eg3_level5=0 amplitude_cc16=83.4645669 ampeg_attack=0 ampeg_release=0.3267606 eg4_time1=0 eg4_time2=0 eg4_time3=0.2085473 eg4_time4=0.1188901 eg4_time5=0.3267606 eg4_level1=1 eg4_level2=1 eg4_level3=1 eg4_level4=1 eg4_level5=1
<region>sample=../Sample/Wave91.wav lokey=26 hikey=26 pitch_keycenter=66 tune=845 pan=0 eg2_cutoff=4864 eg2_sustain=4 eg2_time1=0 eg2_time2=0 eg2_time3=0.0489896 eg2_time4=0 eg2_time5=0 eg2_level1=0 eg2_level2=1 eg2_level3=0.9055118 eg2_level4=0.9055118 eg2_level5=1 eg3_amplitude=100 eg3_sustain=4 eg3_time1=0 eg3_time2=0 eg3_time3=0.203987 eg3_time4=0.1162904 eg3_time5=0.3196154 eg3_level1=0 eg3_level2=1 eg3_level3=0.9117225 eg3_level4=0 eg3_level5=0 amplitude_cc16=83.4645669 ampeg_attack=0 ampeg_release=0.3196154 eg4_time1=0 eg4_time2=0 eg4_time3=0.203987 eg4_time4=0.1162904 eg4_time5=0.3196154 eg4_level1=1 eg4_level2=1 eg4_level3=1 eg4_level4=1 eg4_level5=1
<region>sample=../Sample/Wave91.wav lokey=27 hikey=27 pitch_keycenter=66 tune=795 pan=0 eg2_cutoff=4864 eg2_sustain=4 eg2_time1=0 eg2_time2=0 eg2_time3=0.0489896 eg2_time4=0 eg2_time5=0 eg2_level1=0 eg2_level2=1 eg2_level3=0.9055118 eg2_level4=0.9055118 eg2_level5=1 eg3_amplitude=100 eg3_sustain=4 eg3_time1=0 eg3_time2=0 eg3_time3=0.1995265 eg3_time4=0.1137475 eg3_time5=0.3126264 eg3_level1=0 eg3_level2=1 eg3_level3=0.9117225 eg3_level4=0 eg3_level5=0 amplitude_cc16=83.4645669 ampeg_attack=0 ampeg_release=0.3126264 eg4_time1=0 eg4_time2=0 eg4_time3=0.1995265 eg4_time4=0.1137475 eg4_time5=0.3126264 eg4_level1=1 eg4_level2=1 eg4_level3=1 eg4_level4=1 eg4_level5=1
<region>sample=../Sample/Wave91.wav lokey=28 hikey=28 pitch_keycenter=66 tune=745 pan=0 eg2_cutoff=4864 eg2_sustain=4 eg2_time1=0 eg2_time2=0 eg2_time3=0.0489896 eg2_time4=0 eg2_time5=0 eg2_level1=0 eg2_level2=1 eg2_level3=0.9055118 eg2_level4=0.9055118 eg2_level5=1 eg3_amplitude=100 eg3_sustain=4 eg3_time1=0 eg3_time2=0 eg3_time3=0.1951634 eg3_time4=0.1112602 eg3_time5=0.3057902 eg3_level1=0 eg3_level2=1 eg3_level3=0.9117225 eg3_level4=0 eg3_level5=0 amplitude_cc16=83.4645669 ampeg_attack=0 ampeg_release=0.3057902 eg4_time1=0 eg4_time2=0 eg4_time3=0.1951634 eg4_time4=0.1112602 eg4_time5=0.3057902 eg4_level1=1 eg4_level2=1 eg4_level3=1 eg4_level4=1 eg4_level5=1
<region>sample=../Sample/Wave91.wav lokey=29 hikey=29 pitch_keycenter=66 tune=695 pan=0 eg2_cutoff=4864 eg2_sustain=4 eg2_time1=0 eg2_time2=0 eg2_time3=0.0489896 eg2_time4=0 eg2_time5=0 eg2_level1=0 eg2_level2=1 eg2_level3=0.9055118 eg2_level4=0.9055118 eg2_level5=1 eg3_amplitude=100 eg3_sustain=4 eg3_time1=0 eg3_time2=0 eg3_time3=0.1908958 eg3_time4=0.1088273 eg3_time5=0.2991035 eg3_level1=0 eg3_level2=1 eg3_level3=0.9117225 eg3_level4=0 eg3_level5=0 amplitude_cc16=83.4645669 ampeg_attack=0 ampeg_release=0.2991035 eg4_time1=0 eg4_time2=0 eg4_time3=0.1908958 eg4_time4=0.1088273 eg4_time5=0.2991035 eg4_level1=1 eg4_level2=1 eg4_level3=1 eg4_level4=1 eg4_level5=1
<region>sample=../Sample/Wave91.wav lokey=30 hikey=30 pitch_keycenter=66 tune=645 pan=0 eg2_cutoff=4864 eg2_sustain=4 eg2_time1=0 eg2_time2=0 eg2_time3=0.0489896 eg2_time4=0 eg2_time5=0 eg2_level1=0 eg2_level2=1 eg2_level3=0.9055118 eg2_level4=0.9055118 eg2_level5=1 eg3_amplitude=100 eg3_sustain=4 eg3_time1=0 eg3_time2=0 eg3_time3=0.1867215 eg3_time4=0.1064475 eg3_time5=0.2925631 eg3_level1=0 eg3_level2=1 eg3_level3=0.9117225 eg3_level4=0 eg3_level5=0 amplitude_cc16=83.4645669 ampeg_attack=0 ampeg_release=0.2925631 eg4_time1=0 eg4_time2=0 eg4_time3=0.1867215 eg4_time4=0.1064475 eg4_time5=0.2925631 eg4_level1=1 eg4_level2=1 eg4_level3=1 eg4_level4=1 eg4_level5=1
<region>sample=../Sample/Wave91.wav lokey=31 hikey=31 pitch_keycenter=66 tune=595 pan=0 eg2_cutoff=4864 eg2_sustain=4 eg2_time1=0 eg2_time2=0 eg2_time3=0.0489896 eg2_time4=0 eg2_time5=0 eg2_level1=0 eg2_level2=1 eg2_level3=0.9055118 eg2_level4=0.9055118 eg2_level5=1 eg3_amplitude=100 eg3_sustain=4 eg3_time1=0 eg3_time2=0 eg3_time3=0.1826385 eg3_time4=0.1041199 eg3_time5=0.2861656 eg3_level1=0 eg3_level2=1 eg3_level3=0.9117225 eg3_level4=0 eg3_level5=0 amplitude_cc16=83.4645669 ampeg_attack=0 ampeg_release=0.2861656 eg4_time1=0 eg4_time2=0 eg4_time3=0.1826385 eg4_time4=0.1041199 eg4_time5=0.2861656 eg4_level1=1 eg4_level2=1 eg4_level3=1 eg4_level4=1 eg4_level5=1
<region>sample=../Sample/Wave91.wav lokey=32 hikey=32 pitch_keycenter=66 tune=545 pan=0 eg2_cutoff=4864 eg2_sustain=4 eg2_time1=0 eg2_time2=0 eg2_time3=0.0489896 eg2_time4=0 eg2_time5=0 eg2_level1=0 eg2_level2=1 eg2_level3=0.9055118 eg2_level4=0.9055118 eg2_level5=1 eg3_amplitude=100 eg3_sustain=4 eg3_time1=0 eg3_time2=0 eg3_time3=0.1786448 eg3_time4=0.1018431 eg3_time5=0.2799081 eg3_level1=0 eg3_level2=1 eg3_level3=0.9117225 eg3_level4=0 eg3_level5=0 amplitude_cc16=83.4645669 ampeg_attack=0 ampeg_release=0.2799081 eg4_time1=0 eg4_time2=0 eg4_time3=0.1786448 eg4_time4=0.1018431 eg4_time5=0.2799081 eg4_level1=1 eg4_level2=1 eg4_level3=1 eg4_level4=1 eg4_level5=1
<region>sample=../Sample/Wave91.wav lokey=33 hikey=33 pitch_keycenter=66 tune=495 pan=0 eg2_cutoff=4864 eg2_sustain=4 eg2_time1=0 eg2_time2=0 eg2_time3=0.0489896 eg2_time4=0 eg2_time5=0 eg2_level1=0 eg2_level2=1 eg2_level3=0.9055118 eg2_level4=0.9055118 eg2_level5=1 eg3_amplitude=100 eg3_sustain=4 eg3_time1=0 eg3_time2=0 eg3_time3=0.1747384 eg3_time4=0.0996161 eg3_time5=0.2737874 eg3_level1=0 eg3_level2=1 eg3_level3=0.9117225 eg3_level4=0 eg3_level5=0 amplitude_cc16=83.4645669 ampeg_attack=0 ampeg_release=0.2737874 eg4_time1=0 eg4_time2=0 eg4_time3=0.1747384 eg4_time4=0.0996161 eg4_time5=0.2737874 eg4_level1=1 eg4_level2=1 eg4_level3=1 eg4_level4=1 eg4_level5=1
<region>sample=../Sample/Wave91.wav lokey=34 hikey=34 pitch_keycenter=66 tune=445 pan=0 eg2_cutoff=4864 eg2_sustain=4 eg2_time1=0 eg2_time2=0 eg2_time3=0.0489896 eg2_time4=0 eg2_time5=0 eg2_level1=0 eg2_level2=1 eg2_level3=0.9055118 eg2_level4=0.9055118 eg2_level5=1 eg3_amplitude=100 eg3_sustain=4 eg3_time1=0 eg3_time2=0 eg3_time3=0.1709174 eg3_time4=0.0974378 eg3_time5=0.2678005 eg3_level1=0 eg3_level2=1 eg3_level3=0.9117225 eg3_level4=0 eg3_level5=0 amplitude_cc16=83.4645669 ampeg_attack=0 ampeg_release=0.2678005 eg4_time1=0 eg4_time2=0 eg4_time3=0.1709174 eg4_time4=0.0974378 eg4_time5=0.2678005 eg4_level1=1 eg4_level2=1 eg4_level3=1 eg4_level4=1 eg4_level5=1
<region>sample=../Sample/Wave91.wav lokey=35 hikey=35 pitch_keycenter=66 tune=395 pan=0 eg2_cutoff=4864 eg2_sustain=4 eg2_time1=0 eg2_time2=0 eg2_time3=0.0489896 eg2_time4=0 eg2_time5=0 eg2_level1=0 eg2_level2=1 eg2_level3=0.9055118 eg2_level4=0.9055118 eg2_level5=1 eg3_amplitude=100 eg3_sustain=4 eg3_time1=0 eg3_time2=0 eg3_time3=0.1671799 eg3_time4=0.0953071 eg3_time5=0.2619445 eg3_level1=0 eg3_level2=1 eg3_level3=0.9117225 eg3_level4=0 eg3_level5=0 amplitude_cc16=83.4645669 ampeg_attack=0 ampeg_release=0.2619445 eg4_time1=0 eg4_time2=0 eg4_time3=0.1671799 eg4_time4=0.0953071 eg4_time5=0.2619445 eg4_level1=1 eg4_level2=1 eg4_level3=1 eg4_level4=1 eg4_level5=1
<region>sample=../Sample/Wave91.wav lokey=36 hikey=36 pitch_keycenter=66 tune=345 pan=0 eg2_cutoff=4864 eg2_sustain=4 eg2_time1=0 eg2_time2=0 eg2_time3=0.0489896 eg2_time4=0 eg2_time5=0 eg2_level1=0 eg2_level2=1 eg2_level3=0.9055118 eg2_level4=0.9055118 eg2_level5=1 eg3_amplitude=100 eg3_sustain=4 eg3_time1=0 eg3_time2=0 eg3_time3=0.1635242 eg3_time4=0.0932231 eg3_time5=0.2562166 eg3_level1=0 eg3_level2=1 eg3_level3=0.9117225 eg3_level4=0 eg3_level5=0 amplitude_cc16=83.4645669 ampeg_attack=0 ampeg_release=0.2562166 eg4_time1=0 eg4_time2=0 eg4_time3=0.1635242 eg4_time4=0.0932231 eg4_time5=0.2562166 eg4_level1=1 eg4_level2=1 eg4_level3=1 eg4_level4=1 eg4_level5=1
<region>sample=../Sample/Wave91.wav lokey=37 hikey=37 pitch_keycenter=66 tune=295 pan=0 eg2_cutoff=4864 eg2_sustain=4 eg2_time1=0 eg2_time2=0 eg2_time3=0.0489896 eg2_time4=0 eg2_time5=0 eg2_level1=0 eg2_level2=1 eg2_level3=0.9055118 eg2_level4=0.9055118 eg2_level5=1 eg3_amplitude=100 eg3_sustain=4 eg3_time1=0 eg3_time2=0 eg3_time3=0.1599485 eg3_time4=0.0911846 eg3_time5=0.2506139 eg3_level1=0 eg3_level2=1 eg3_level3=0.9117225 eg3_level4=0 eg3_level5=0 amplitude_cc16=83.4645669 ampeg_attack=0 ampeg_release=0.2506139 eg4_time1=0 eg4_time2=0 eg4_time3=0.1599485 eg4_time4=0.0911846 eg4_time5=0.2506139 eg4_level1=1 eg4_level2=1 eg4_level3=1 eg4_level4=1 eg4_level5=1
<region>sample=../Sample/Wave91.wav lokey=38 hikey=38 pitch_keycenter=66 tune=245 pan=0 eg2_cutoff=4864 eg2_sustain=4 eg2_time1=0 eg2_time2=0 eg2_time3=0.0489896 eg2_time4=0 eg2_time5=0 eg2_level1=0 eg2_level2=1 eg2_level3=0.9055118 eg2_level4=0.9055118 eg2_level5=1 eg3_amplitude=100 eg3_sustain=4 eg3_time1=0 eg3_time2=0 eg3_time3=0.1564509 eg3_time4=0.0891907 eg3_time5=0.2451338 eg3_level1=0 eg3_level2=1 eg3_level3=0.9117225 eg3_level4=0 eg3_level5=0 amplitude_cc16=83.4645669 ampeg_attack=0 ampeg_release=0.2451338 eg4_time1=0 eg4_time2=0 eg4_time3=0.1564509 eg4_time4=0.0891907 eg4_time5=0.2451338 eg4_level1=1 eg4_level2=1 eg4_level3=1 eg4_level4=1 eg4_level5=1
<region>sample=../Sample/Wave91.wav lokey=39 hikey=39 pitch_keycenter=66 tune=195 pan=0 eg2_cutoff=4864 eg2_sustain=4 eg2_time1=0 eg2_time2=0 eg2_time3=0.0489896 eg2_time4=0 eg2_time5=0 eg2_level1=0 eg2_level2=1 eg2_level3=0.9055118 eg2_level4=0.9055118 eg2_level5=1 eg3_amplitude=100 eg3_sustain=4 eg3_time1=0 eg3_time2=0 eg3_time3=0.1530298 eg3_time4=0.0872403 eg3_time5=0.2397735 eg3_level1=0 eg3_level2=1 eg3_level3=0.9117225 eg3_level4=0 eg3_level5=0 amplitude_cc16=83.4645669 ampeg_attack=0 ampeg_release=0.2397735 eg4_time1=0 eg4_time2=0 eg4_time3=0.1530298 eg4_time4=0.0872403 eg4_time5=0.2397735 eg4_level1=1 eg4_level2=1 eg4_level3=1 eg4_level4=1 eg4_level5=1
<region>sample=../Sample/Wave91.wav lokey=40 hikey=40 pitch_keycenter=66 tune=145 pan=0 eg2_cutoff=4864 eg2_sustain=4 eg2_time1=0 eg2_time2=0 eg2_time3=0.0489896 eg2_time4=0 eg2_time5=0 eg2_level1=0 eg2_level2=1 eg2_level3=0.9055118 eg2_level4=0.9055118 eg2_level5=1 eg3_amplitude=100 eg3_sustain=4 eg3_time1=0 eg3_time2=0 eg3_time3=0.1496835 eg3_time4=0.0853327 eg3_time5=0.2345304 eg3_level1=0 eg3_level2=1 eg3_level3=0.9117225 eg3_level4=0 eg3_level5=0 amplitude_cc16=83.4645669 ampeg_attack=0 ampeg_release=0.2345304 eg4_time1=0 eg4_time2=0 eg4_time3=0.1496835 eg4_time4=0.0853327 eg4_time5=0.2345304 eg4_level1=1 eg4_level2=1 eg4_level3=1 eg4_level4=1 eg4_level5=1
<region>sample=../Sample/Wave91.wav lokey=41 hikey=41 pitch_keycenter=66 tune=95 pan=0 eg2_cutoff=4864 eg2_sustain=4 eg2_time1=0 eg2_time2=0 eg2_time3=0.0489896 eg2_time4=0 eg2_time5=0 eg2_level1=0 eg2_level2=1 eg2_level3=0.9055118 eg2_level4=0.9055118 eg2_level5=1 eg3_amplitude=100 eg3_sustain=4 eg3_time1=0 eg3_time2=0 eg3_time3=0.1464104 eg3_time4=0.0834667 eg3_time5=0.2294019 eg3_level1=0 eg3_level2=1 eg3_level3=0.9117225 eg3_level4=0 eg3_level5=0 amplitude_cc16=83.4645669 ampeg_attack=0 ampeg_release=0.2294019 eg4_time1=0 eg4_time2=0 eg4_time3=0.1464104 eg4_time4=0.0834667 eg4_time5=0.2294019 eg4_level1=1 eg4_level2=1 eg4_level3=1 eg4_level4=1 eg4_level5=1
<region>sample=../Sample/Wave91.wav lokey=42 hikey=42 pitch_keycenter=66 tune=45 pan=0 eg2_cutoff=4864 eg2_sustain=4 eg2_time1=0 eg2_time2=0 eg2_time3=0.0489896 eg2_time4=0 eg2_time5=0 eg2_level1=0 eg2_level2=1 eg2_level3=0.9055118 eg2_level4=0.9055118 eg2_level5=1 eg3_amplitude=100 eg3_sustain=4 eg3_time1=0 eg3_time2=0 eg3_time3=0.1432089 eg3_time4=0.0816415 eg3_time5=0.2243856 eg3_level1=0 eg3_level2=1 eg3_level3=0.9117225 eg3_level4=0 eg3_level5=0 amplitude_cc16=83.4645669 ampeg_attack=0 ampeg_release=0.2243856 eg4_time1=0 eg4_time2=0 eg4_time3=0.1432089 eg4_time4=0.0816415 eg4_time5=0.2243856 eg4_level1=1 eg4_level2=1 eg4_level3=1 eg4_level4=1 eg4_level5=1
<region>sample=../Sample/Wave91.wav lokey=43 hikey=43 pitch_keycenter=66 tune=-4 pan=0 eg2_cutoff=4864 eg2_sustain=4 eg2_time1=0 eg2_time2=0 eg2_time3=0.0489896 eg2_time4=0 eg2_time5=0 eg2_level1=0 eg2_level2=1 eg2_level3=0.9055118 eg2_level4=0.9055118 eg2_level5=1 eg3_amplitude=100 eg3_sustain=4 eg3_time1=0 eg3_time2=0 eg3_time3=0.1400773 eg3_time4=0.0798563 eg3_time5=0.219479 eg3_level1=0 eg3_level2=1 eg3_level3=0.9117225 eg3_level4=0 eg3_level5=0 amplitude_cc16=83.4645669 ampeg_attack=0 ampeg_release=0.219479 eg4_time1=0 eg4_time2=0 eg4_time3=0.1400773 eg4_time4=0.0798563 eg4_time5=0.219479 eg4_level1=1 eg4_level2=1 eg4_level3=1 eg4_level4=1 eg4_level5=1
<region>sample=../Sample/Wave91.wav lokey=44 hikey=44 pitch_keycenter=66 tune=-54 pan=0 eg2_cutoff=4864 eg2_sustain=4 eg2_time1=0 eg2_time2=0 eg2_time3=0.0489896 eg2_time4=0 eg2_time5=0 eg2_level1=0 eg2_level2=1 eg2_level3=0.9055118 eg2_level4=0.9055118 eg2_level5=1 eg3_amplitude=100 eg3_sustain=4 eg3_time1=0 eg3_time2=0 eg3_time3=0.1370143 eg3_time4=0.0781101 eg3_time5=0.2146797 eg3_level1=0 eg3_level2=1 eg3_level3=0.9117225 eg3_level4=0 eg3_level5=0 amplitude_cc16=83.4645669 ampeg_attack=0 ampeg_release=0.2146797 eg4_time1=0 eg4_time2=0 eg4_time3=0.1370143 eg4_time4=0.0781101 eg4_time5=0.2146797 eg4_level1=1 eg4_level2=1 eg4_level3=1 eg4_level4=1 eg4_level5=1
<region>sample=../Sample/Wave91.wav lokey=45 hikey=45 pitch_keycenter=66 tune=-104 pan=0 eg2_cutoff=4864 eg2_sustain=4 eg2_time1=0 eg2_time2=0 eg2_time3=0.0489896 eg2_time4=0 eg2_time5=0 eg2_level1=0 eg2_level2=1 eg2_level3=0.9055118 eg2_level4=0.9055118 eg2_level5=1 eg3_amplitude=100 eg3_sustain=4 eg3_time1=0 eg3_time2=0 eg3_time3=0.1340182 eg3_time4=0.0764021 eg3_time5=0.2099853 eg3_level1=0 eg3_level2=1 eg3_level3=0.9117225 eg3_level4=0 eg3_level5=0 amplitude_cc16=83.4645669 ampeg_attack=0 ampeg_release=0.2099853 eg4_time1=0 eg4_time2=0 eg4_time3=0.1340182 eg4_time4=0.0764021 eg4_time5=0.2099853 eg4_level1=1 eg4_level2=1 eg4_level3=1 eg4_level4=1 eg4_level5=1
<region>sample=../Sample/Wave91.wav lokey=46 hikey=46 pitch_keycenter=66 tune=-154 pan=0 eg2_cutoff=4864 eg2_sustain=4 eg2_time1=0 eg2_time2=0 eg2_time3=0.0489896 eg2_time4=0 eg2_time5=0 eg2_level1=0 eg2_level2=1 eg2_level3=0.9055118 eg2_level4=0.9055118 eg2_level5=1 eg3_amplitude=100 eg3_sustain=4 eg3_time1=0 eg3_time2=0 eg3_time3=0.1310876 eg3_time4=0.0747314 eg3_time5=0.2053936 eg3_level1=0 eg3_level2=1 eg3_level3=0.9117225 eg3_level4=0 eg3_level5=0 amplitude_cc16=83.4645669 ampeg_attack=0 ampeg_release=0.2053936 eg4_time1=0 eg4_time2=0 eg4_time3=0.1310876 eg4_time4=0.0747314 eg4_time5=0.2053936 eg4_level1=1 eg4_level2=1 eg4_level3=1 eg4_level4=1 eg4_level5=1
<region>sample=../Sample/Wave91.wav lokey=47 hikey=47 pitch_keycenter=66 tune=-204 pan=0 eg2_cutoff=4864 eg2_sustain=4 eg2_time1=0 eg2_time2=0 eg2_time3=0.0489896 eg2_time4=0 eg2_time5=0 eg2_level1=0 eg2_level2=1 eg2_level3=0.9055118 eg2_level4=0.9055118 eg2_level5=1 eg3_amplitude=100 eg3_sustain=4 eg3_time1=0 eg3_time2=0 eg3_time3=0.1282212 eg3_time4=0.0730972 eg3_time5=0.2009023 eg3_level1=0 eg3_level2=1 eg3_level3=0.9117225 eg3_level4=0 eg3_level5=0 amplitude_cc16=83.4645669 ampeg_attack=0 ampeg_release=0.2009023 eg4_time1=0 eg4_time2=0 eg4_time3=0.1282212 eg4_time4=0.0730972 eg4_time5=0.2009023 eg4_level1=1 eg4_level2=1 eg4_level3=1 eg4_level4=1 eg4_level5=1
<region>sample=../Sample/Wave91.wav lokey=48 hikey=48 pitch_keycenter=66 tune=-254 pan=0 eg2_cutoff=4864 eg2_sustain=4 eg2_time1=0 eg2_time2=0 eg2_time3=0.0489896 eg2_time4=0 eg2_time5=0 eg2_level1=0 eg2_level2=1 eg2_level3=0.9055118 eg2_level4=0.9055118 eg2_level5=1 eg3_amplitude=100 eg3_sustain=4 eg3_time1=0 eg3_time2=0 eg3_time3=0.1254174 eg3_time4=0.0714988 eg3_time5=0.1965092 eg3_level1=0 eg3_level2=1 eg3_level3=0.9117225 eg3_level4=0 eg3_level5=0 amplitude_cc16=83.4645669 ampeg_attack=0 ampeg_release=0.1965092 eg4_time1=0 eg4_time2=0 eg4_time3=0.1254174 eg4_time4=0.0714988 eg4_time5=0.1965092 eg4_level1=1 eg4_level2=1 eg4_level3=1 eg4_level4=1 eg4_level5=1
<region>sample=../Sample/Wave91.wav lokey=49 hikey=49 pitch_keycenter=66 tune=-304 pan=0 eg2_cutoff=4864 eg2_sustain=4 eg2_time1=0 eg2_time2=0 eg2_time3=0.0489896 eg2_time4=0 eg2_time5=0 eg2_level1=0 eg2_level2=1 eg2_level3=0.9055118 eg2_level4=0.9055118 eg2_level5=1 eg3_amplitude=100 eg3_sustain=4 eg3_time1=0 eg3_time2=0 eg3_time3=0.1226749 eg3_time4=0.0699354 eg3_time5=0.1922121 eg3_level1=0 eg3_level2=1 eg3_level3=0.9117225 eg3_level4=0 eg3_level5=0 amplitude_cc16=83.4645669 ampeg_attack=0 ampeg_release=0.1922121 eg4_time1=0 eg4_time2=0 eg4_time3=0.1226749 eg4_time4=0.0699354 eg4_time5=0.1922121 eg4_level1=1 eg4_level2=1 eg4_level3=1 eg4_level4=1 eg4_level5=1
<region>sample=../Sample/Wave91.wav lokey=50 hikey=50 pitch_keycenter=66 tune=-354 pan=0 eg2_cutoff=4864 eg2_sustain=4 eg2_time1=0 eg2_time2=0 eg2_time3=0.0489896 eg2_time4=0 eg2_time5=0 eg2_level1=0 eg2_level2=1 eg2_level3=0.9055118 eg2_level4=0.9055118 eg2_level5=1 eg3_amplitude=100 eg3_sustain=4 eg3_time1=0 eg3_time2=0 eg3_time3=0.1199924 eg3_time4=0.0684061 eg3_time5=0.188009 eg3_level1=0 eg3_level2=1 eg3_level3=0.9117225 eg3_level4=0 eg3_level5=0 amplitude_cc16=83.4645669 ampeg_attack=0 ampeg_release=0.188009 eg4_time1=0 eg4_time2=0 eg4_time3=0.1199924 eg4_time4=0.0684061 eg4_time5=0.188009 eg4_level1=1 eg4_level2=1 eg4_level3=1 eg4_level4=1 eg4_level5=1
<region>sample=../Sample/Wave91.wav lokey=51 hikey=51 pitch_keycenter=66 tune=-404 pan=0 eg2_cutoff=4864 eg2_sustain=4 eg2_time1=0 eg2_time2=0 eg2_time3=0.0489896 eg2_time4=0 eg2_time5=0 eg2_level1=0 eg2_level2=1 eg2_level3=0.9055118 eg2_level4=0.9055118 eg2_level5=1 eg3_amplitude=100 eg3_sustain=4 eg3_time1=0 eg3_time2=0 eg3_time3=0.1173685 eg3_time4=0.0669103 eg3_time5=0.1838979 eg3_level1=0 eg3_level2=1 eg3_level3=0.9117225 eg3_level4=0 eg3_level5=0 amplitude_cc16=83.4645669 ampeg_attack=0 ampeg_release=0.1838979 eg4_time1=0 eg4_time2=0 eg4_time3=0.1173685 eg4_time4=0.0669103 eg4_time5=0.1838979 eg4_level1=1 eg4_level2=1 eg4_level3=1 eg4_level4=1 eg4_level5=1
<region>sample=../Sample/Wave91.wav lokey=52 hikey=52 pitch_keycenter=66 tune=-454 pan=0 eg2_cutoff=4864 eg2_sustain=4 eg2_time1=0 eg2_time2=0 eg2_time3=0.0489896 eg2_time4=0 eg2_time5=0 eg2_level1=0 eg2_level2=1 eg2_level3=0.9055118 eg2_level4=0.9055118 eg2_level5=1 eg3_amplitude=100 eg3_sustain=4 eg3_time1=0 eg3_time2=0 eg3_time3=0.114802 eg3_time4=0.0654472 eg3_time5=0.1798766 eg3_level1=0 eg3_level2=1 eg3_level3=0.9117225 eg3_level4=0 eg3_level5=0 amplitude_cc16=83.4645669 ampeg_attack=0 ampeg_release=0.1798766 eg4_time1=0 eg4_time2=0 eg4_time3=0.114802 eg4_time4=0.0654472 eg4_time5=0.1798766 eg4_level1=1 eg4_level2=1 eg4_level3=1 eg4_level4=1 eg4_level5=1
<region>sample=../Sample/Wave91.wav lokey=53 hikey=53 pitch_keycenter=66 tune=-504 pan=0 eg2_cutoff=4864 eg2_sustain=4 eg2_time1=0 eg2_time2=0 eg2_time3=0.0489896 eg2_time4=0 eg2_time5=0 eg2_level1=0 eg2_level2=1 eg2_level3=0.9055118 eg2_level4=0.9055118 eg2_level5=1 eg3_amplitude=100 eg3_sustain=4 eg3_time1=0 eg3_time2=0 eg3_time3=0.1122917 eg3_time4=0.064016 eg3_time5=0.1759433 eg3_level1=0 eg3_level2=1 eg3_level3=0.9117225 eg3_level4=0 eg3_level5=0 amplitude_cc16=83.4645669 ampeg_attack=0 ampeg_release=0.1759433 eg4_time1=0 eg4_time2=0 eg4_time3=0.1122917 eg4_time4=0.064016 eg4_time5=0.1759433 eg4_level1=1 eg4_level2=1 eg4_level3=1 eg4_level4=1 eg4_level5=1
<region>sample=../Sample/Wave91.wav lokey=54 hikey=54 pitch_keycenter=66 tune=-554 pan=0 eg2_cutoff=4864 eg2_sustain=4 eg2_time1=0 eg2_time2=0 eg2_time3=0.0489896 eg2_time4=0 eg2_time5=0 eg2_level1=0 eg2_level2=1 eg2_level3=0.9055118 eg2_level4=0.9055118 eg2_level5=1 eg3_amplitude=100 eg3_sustain=4 eg3_time1=0 eg3_time2=0 eg3_time3=0.1098362 eg3_time4=0.0626162 eg3_time5=0.1720959 eg3_level1=0 eg3_level2=1 eg3_level3=0.9117225 eg3_level4=0 eg3_level5=0 amplitude_cc16=83.4645669 ampeg_attack=0 ampeg_release=0.1720959 eg4_time1=0 eg4_time2=0 eg4_time3=0.1098362 eg4_time4=0.0626162 eg4_time5=0.1720959 eg4_level1=1 eg4_level2=1 eg4_level3=1 eg4_level4=1 eg4_level5=1
<region>sample=../Sample/Wave91.wav lokey=55 hikey=55 pitch_keycenter=66 tune=-604 pan=0 eg2_cutoff=4864 eg2_sustain=4 eg2_time1=0 eg2_time2=0 eg2_time3=0.0489896 eg2_time4=0 eg2_time5=0 eg2_level1=0 eg2_level2=1 eg2_level3=0.9055118 eg2_level4=0.9055118 eg2_level5=1 eg3_amplitude=100 eg3_sustain=4 eg3_time1=0 eg3_time2=0 eg3_time3=0.1074344 eg3_time4=0.061247 eg3_time5=0.1683327 eg3_level1=0 eg3_level2=1 eg3_level3=0.9117225 eg3_level4=0 eg3_level5=0 amplitude_cc16=83.4645669 ampeg_attack=0 ampeg_release=0.1683327 eg4_time1=0 eg4_time2=0 eg4_time3=0.1074344 eg4_time4=0.061247 eg4_time5=0.1683327 eg4_level1=1 eg4_level2=1 eg4_level3=1 eg4_level4=1 eg4_level5=1
<region>sample=../Sample/Wave91.wav lokey=56 hikey=56 pitch_keycenter=66 tune=-654 pan=0 eg2_cutoff=4864 eg2_sustain=4 eg2_time1=0 eg2_time2=0 eg2_time3=0.0489896 eg2_time4=0 eg2_time5=0 eg2_level1=0 eg2_level2=1 eg2_level3=0.9055118 eg2_level4=0.9055118 eg2_level5=1 eg3_amplitude=100 eg3_sustain=4 eg3_time1=0 eg3_time2=0 eg3_time3=0.1050852 eg3_time4=0.0599077 eg3_time5=0.1646518 eg3_level1=0 eg3_level2=1 eg3_level3=0.9117225 eg3_level4=0 eg3_level5=0 amplitude_cc16=83.4645669 ampeg_attack=0 ampeg_release=0.1646518 eg4_time1=0 eg4_time2=0 eg4_time3=0.1050852 eg4_time4=0.0599077 eg4_time5=0.1646518 eg4_level1=1 eg4_level2=1 eg4_level3=1 eg4_level4=1 eg4_level5=1
<region>sample=../Sample/Wave91.wav lokey=57 hikey=57 pitch_keycenter=66 tune=-704 pan=0 eg2_cutoff=4864 eg2_sustain=4 eg2_time1=0 eg2_time2=0 eg2_time3=0.0489896 eg2_time4=0 eg2_time5=0 eg2_level1=0 eg2_level2=1 eg2_level3=0.9055118 eg2_level4=0.9055118 eg2_level5=1 eg3_amplitude=100 eg3_sustain=4 eg3_time1=0 eg3_time2=0 eg3_time3=0.1027873 eg3_time4=0.0585977 eg3_time5=0.1610514 eg3_level1=0 eg3_level2=1 eg3_level3=0.9117225 eg3_level4=0 eg3_level5=0 amplitude_cc16=83.4645669 ampeg_attack=0 ampeg_release=0.1610514 eg4_time1=0 eg4_time2=0 eg4_time3=0.1027873 eg4_time4=0.0585977 eg4_time5=0.1610514 eg4_level1=1 eg4_level2=1 eg4_level3=1 eg4_level4=1 eg4_level5=1
<region>sample=../Sample/Wave91.wav lokey=58 hikey=58 pitch_keycenter=66 tune=-754 pan=0 eg2_cutoff=4864 eg2_sustain=4 eg2_time1=0 eg2_time2=0 eg2_time3=0.0489896 eg2_time4=0 eg2_time5=0 eg2_level1=0 eg2_level2=1 eg2_level3=0.9055118 eg2_level4=0.9055118 eg2_level5=1 eg3_amplitude=100 eg3_sustain=4 eg3_time1=0 eg3_time2=0 eg3_time3=0.1005396 eg3_time4=0.0573164 eg3_time5=0.1575297 eg3_level1=0 eg3_level2=1 eg3_level3=0.9117225 eg3_level4=0 eg3_level5=0 amplitude_cc16=83.4645669 ampeg_attack=0 ampeg_release=0.1575297 eg4_time1=0 eg4_time2=0 eg4_time3=0.1005396 eg4_time4=0.0573164 eg4_time5=0.1575297 eg4_level1=1 eg4_level2=1 eg4_level3=1 eg4_level4=1 eg4_level5=1
<region>sample=../Sample/Wave91.wav lokey=59 hikey=59 pitch_keycenter=66 tune=-804 pan=0 eg2_cutoff=4864 eg2_sustain=4 eg2_time1=0 eg2_time2=0 eg2_time3=0.0489896 eg2_time4=0 eg2_time5=0 eg2_level1=0 eg2_level2=1 eg2_level3=0.9055118 eg2_level4=0.9055118 eg2_level5=1 eg3_amplitude=100 eg3_sustain=4 eg3_time1=0 eg3_time2=0 eg3_time3=0.0983411 eg3_time4=0.056063 eg3_time5=0.154085 eg3_level1=0 eg3_level2=1 eg3_level3=0.9117225 eg3_level4=0 eg3_level5=0 amplitude_cc16=83.4645669 ampeg_attack=0 ampeg_release=0.154085 eg4_time1=0 eg4_time2=0 eg4_time3=0.0983411 eg4_time4=0.056063 eg4_time5=0.154085 eg4_level1=1 eg4_level2=1 eg4_level3=1 eg4_level4=1 eg4_level5=1
<region>sample=../Sample/Wave91.wav lokey=60 hikey=60 pitch_keycenter=66 tune=-854 pan=0 eg2_cutoff=4864 eg2_sustain=4 eg2_time1=0 eg2_time2=0 eg2_time3=0.0489896 eg2_time4=0 eg2_time5=0 eg2_level1=0 eg2_level2=1 eg2_level3=0.9055118 eg2_level4=0.9055118 eg2_level5=1 eg3_amplitude=100 eg3_sustain=4 eg3_time1=0 eg3_time2=0 eg3_time3=0.0961907 eg3_time4=0.0548371 eg3_time5=0.1507156 eg3_level1=0 eg3_level2=1 eg3_level3=0.9117225 eg3_level4=0 eg3_level5=0 amplitude_cc16=83.4645669 ampeg_attack=0 ampeg_release=0.1507156 eg4_time1=0 eg4_time2=0 eg4_time3=0.0961907 eg4_time4=0.0548371 eg4_time5=0.1507156 eg4_level1=1 eg4_level2=1 eg4_level3=1 eg4_level4=1 eg4_level5=1
<region>sample=../Sample/Wave91.wav lokey=61 hikey=61 pitch_keycenter=66 tune=-904 pan=0 eg2_cutoff=4864 eg2_sustain=4 eg2_time1=0 eg2_time2=0 eg2_time3=0.0489896 eg2_time4=0 eg2_time5=0 eg2_level1=0 eg2_level2=1 eg2_level3=0.9055118 eg2_level4=0.9055118 eg2_level5=1 eg3_amplitude=100 eg3_sustain=4 eg3_time1=0 eg3_time2=0 eg3_time3=0.0940873 eg3_time4=0.053638 eg3_time5=0.14742 eg3_level1=0 eg3_level2=1 eg3_level3=0.9117225 eg3_level4=0 eg3_level5=0 amplitude_cc16=83.4645669 ampeg_attack=0 ampeg_release=0.14742 eg4_time1=0 eg4_time2=0 eg4_time3=0.0940873 eg4_time4=0.053638 eg4_time5=0.14742 eg4_level1=1 eg4_level2=1 eg4_level3=1 eg4_level4=1 eg4_level5=1
<region>sample=../Sample/Wave91.wav lokey=62 hikey=62 pitch_keycenter=66 tune=-954 pan=0 eg2_cutoff=4864 eg2_sustain=4 eg2_time1=0 eg2_time2=0 eg2_time3=0.0489896 eg2_time4=0 eg2_time5=0 eg2_level1=0 eg2_level2=1 eg2_level3=0.9055118 eg2_level4=0.9055118 eg2_level5=1 eg3_amplitude=100 eg3_sustain=4 eg3_time1=0 eg3_time2=0 eg3_time3=0.0920299 eg3_time4=0.0524651 eg3_time5=0.1441964 eg3_level1=0 eg3_level2=1 eg3_level3=0.9117225 eg3_level4=0 eg3_level5=0 amplitude_cc16=83.4645669 ampeg_attack=0 ampeg_release=0.1441964 eg4_time1=0 eg4_time2=0 eg4_time3=0.0920299 eg4_time4=0.0524651 eg4_time5=0.1441964 eg4_level1=1 eg4_level2=1 eg4_level3=1 eg4_level4=1 eg4_level5=1
<region>sample=../Sample/Wave91.wav lokey=63 hikey=63 pitch_keycenter=66 tune=-1004 pan=0 eg2_cutoff=4864 eg2_sustain=4 eg2_time1=0 eg2_time2=0 eg2_time3=0.0489896 eg2_time4=0 eg2_time5=0 eg2_level1=0 eg2_level2=1 eg2_level3=0.9055118 eg2_level4=0.9055118 eg2_level5=1 eg3_amplitude=100 eg3_sustain=4 eg3_time1=0 eg3_time2=0 eg3_time3=0.0900175 eg3_time4=0.0513178 eg3_time5=0.1410432 eg3_level1=0 eg3_level2=1 eg3_level3=0.9117225 eg3_level4=0 eg3_level5=0 amplitude_cc16=83.4645669 ampeg_attack=0 ampeg_release=0.1410432 eg4_time1=0 eg4_time2=0 eg4_time3=0.0900175 eg4_time4=0.0513178 eg4_time5=0.1410432 eg4_level1=1 eg4_level2=1 eg4_level3=1 eg4_level4=1 eg4_level5=1
<region>sample=../Sample/Wave91.wav lokey=64 hikey=64 pitch_keycenter=66 tune=-1054 pan=0 eg2_cutoff=4864 eg2_sustain=4 eg2_time1=0 eg2_time2=0 eg2_time3=0.0489896 eg2_time4=0 eg2_time5=0 eg2_level1=0 eg2_level2=1 eg2_level3=0.9055118 eg2_level4=0.9055118 eg2_level5=1 eg3_amplitude=100 eg3_sustain=4 eg3_time1=0 eg3_time2=0 eg3_time3=0.0880491 eg3_time4=0.0501957 eg3_time5=0.137959 eg3_level1=0 eg3_level2=1 eg3_level3=0.9117225 eg3_level4=0 eg3_level5=0 amplitude_cc16=83.4645669 ampeg_attack=0 ampeg_release=0.137959 eg4_time1=0 eg4_time2=0 eg4_time3=0.0880491 eg4_time4=0.0501957 eg4_time5=0.137959 eg4_level1=1 eg4_level2=1 eg4_level3=1 eg4_level4=1 eg4_level5=1
<region>sample=../Sample/Wave91.wav lokey=65 hikey=65 pitch_keycenter=66 tune=-1104 pan=0 eg2_cutoff=4864 eg2_sustain=4 eg2_time1=0 eg2_time2=0 eg2_time3=0.0489896 eg2_time4=0 eg2_time5=0 eg2_level1=0 eg2_level2=1 eg2_level3=0.9055118 eg2_level4=0.9055118 eg2_level5=1 eg3_amplitude=100 eg3_sustain=4 eg3_time1=0 eg3_time2=0 eg3_time3=0.0861238 eg3_time4=0.0490981 eg3_time5=0.1349423 eg3_level1=0 eg3_level2=1 eg3_level3=0.9117225 eg3_level4=0 eg3_level5=0 amplitude_cc16=83.4645669 ampeg_attack=0 ampeg_release=0.1349423 eg4_time1=0 eg4_time2=0 eg4_time3=0.0861238 eg4_time4=0.0490981 eg4_time5=0.1349423 eg4_level1=1 eg4_level2=1 eg4_level3=1 eg4_level4=1 eg4_level5=1
<region>sample=../Sample/Wave91.wav lokey=66 hikey=66 pitch_keycenter=66 tune=-1154 pan=0 eg2_cutoff=4864 eg2_sustain=4 eg2_time1=0 eg2_time2=0 eg2_time3=0.0489896 eg2_time4=0 eg2_time5=0 eg2_level1=0 eg2_level2=1 eg2_level3=0.9055118 eg2_level4=0.9055118 eg2_level5=1 eg3_amplitude=100 eg3_sustain=4 eg3_time1=0 eg3_time2=0 eg3_time3=0.0842405 eg3_time4=0.0480244 eg3_time5=0.1319915 eg3_level1=0 eg3_level2=1 eg3_level3=0.9117225 eg3_level4=0 eg3_level5=0 amplitude_cc16=83.4645669 ampeg_attack=0 ampeg_release=0.1319915 eg4_time1=0 eg4_time2=0 eg4_time3=0.0842405 eg4_time4=0.0480244 eg4_time5=0.1319915 eg4_level1=1 eg4_level2=1 eg4_level3=1 eg4_level4=1 eg4_level5=1
<region>sample=../Sample/Wave91.wav lokey=67 hikey=67 pitch_keycenter=66 tune=-1204 pan=0 eg2_cutoff=4864 eg2_sustain=4 eg2_time1=0 eg2_time2=0 eg2_time3=0.0489896 eg2_time4=0 eg2_time5=0 eg2_level1=0 eg2_level2=1 eg2_level3=0.9055118 eg2_level4=0.9055118 eg2_level5=1 eg3_amplitude=100 eg3_sustain=4 eg3_time1=0 eg3_time2=0 eg3_time3=0.0823984 eg3_time4=0.0469743 eg3_time5=0.1291053 eg3_level1=0 eg3_level2=1 eg3_level3=0.9117225 eg3_level4=0 eg3_level5=0 amplitude_cc16=83.4645669 ampeg_attack=0 ampeg_release=0.1291053 eg4_time1=0 eg4_time2=0 eg4_time3=0.0823984 eg4_time4=0.0469743 eg4_time5=0.1291053 eg4_level1=1 eg4_level2=1 eg4_level3=1 eg4_level4=1 eg4_level5=1
<region>sample=../Sample/Wave91.wav lokey=68 hikey=68 pitch_keycenter=66 tune=-1254 pan=0 eg2_cutoff=4864 eg2_sustain=4 eg2_time1=0 eg2_time2=0 eg2_time3=0.0489896 eg2_time4=0 eg2_time5=0 eg2_level1=0 eg2_level2=1 eg2_level3=0.9055118 eg2_level4=0.9055118 eg2_level5=1 eg3_amplitude=100 eg3_sustain=4 eg3_time1=0 eg3_time2=0 eg3_time3=0.0805966 eg3_time4=0.0459471 eg3_time5=0.1262822 eg3_level1=0 eg3_level2=1 eg3_level3=0.9117225 eg3_level4=0 eg3_level5=0 amplitude_cc16=83.4645669 ampeg_attack=0 ampeg_release=0.1262822 eg4_time1=0 eg4_time2=0 eg4_time3=0.0805966 eg4_time4=0.0459471 eg4_time5=0.1262822 eg4_level1=1 eg4_level2=1 eg4_level3=1 eg4_level4=1 eg4_level5=1
<region>sample=../Sample/Wave91.wav lokey=69 hikey=69 pitch_keycenter=66 tune=-1304 pan=0 eg2_cutoff=4864 eg2_sustain=4 eg2_time1=0 eg2_time2=0 eg2_time3=0.0489896 eg2_time4=0 eg2_time5=0 eg2_level1=0 eg2_level2=1 eg2_level3=0.9055118 eg2_level4=0.9055118 eg2_level5=1 eg3_amplitude=100 eg3_sustain=4 eg3_time1=0 eg3_time2=0 eg3_time3=0.0788342 eg3_time4=0.0449424 eg3_time5=0.1235208 eg3_level1=0 eg3_level2=1 eg3_level3=0.9117225 eg3_level4=0 eg3_level5=0 amplitude_cc16=83.4645669 ampeg_attack=0 ampeg_release=0.1235208 eg4_time1=0 eg4_time2=0 eg4_time3=0.0788342 eg4_time4=0.0449424 eg4_time5=0.1235208 eg4_level1=1 eg4_level2=1 eg4_level3=1 eg4_level4=1 eg4_level5=1
<region>sample=../Sample/Wave91.wav lokey=70 hikey=70 pitch_keycenter=66 tune=-1354 pan=0 eg2_cutoff=4864 eg2_sustain=4 eg2_time1=0 eg2_time2=0 eg2_time3=0.0489896 eg2_time4=0 eg2_time5=0 eg2_level1=0 eg2_level2=1 eg2_level3=0.9055118 eg2_level4=0.9055118 eg2_level5=1 eg3_amplitude=100 eg3_sustain=4 eg3_time1=0 eg3_time2=0 eg3_time3=0.0771104 eg3_time4=0.0439596 eg3_time5=0.1208198 eg3_level1=0 eg3_level2=1 eg3_level3=0.9117225 eg3_level4=0 eg3_level5=0 amplitude_cc16=83.4645669 ampeg_attack=0 ampeg_release=0.1208198 eg4_time1=0 eg4_time2=0 eg4_time3=0.0771104 eg4_time4=0.0439596 eg4_time5=0.1208198 eg4_level1=1 eg4_level2=1 eg4_level3=1 eg4_level4=1 eg4_level5=1
<region>sample=../Sample/Wave91.wav lokey=71 hikey=71 pitch_keycenter=66 tune=-1404 pan=0 eg2_cutoff=4864 eg2_sustain=4 eg2_time1=0 eg2_time2=0 eg2_time3=0.0489896 eg2_time4=0 eg2_time5=0 eg2_level1=0 eg2_level2=1 eg2_level3=0.9055118 eg2_level4=0.9055118 eg2_level5=1 eg3_amplitude=100 eg3_sustain=4 eg3_time1=0 eg3_time2=0 eg3_time3=0.0754242 eg3_time4=0.0429984 eg3_time5=0.1181778 eg3_level1=0 eg3_level2=1 eg3_level3=0.9117225 eg3_level4=0 eg3_level5=0 amplitude_cc16=83.4645669 ampeg_attack=0 ampeg_release=0.1181778 eg4_time1=0 eg4_time2=0 eg4_time3=0.0754242 eg4_time4=0.0429984 eg4_time5=0.1181778 eg4_level1=1 eg4_level2=1 eg4_level3=1 eg4_level4=1 eg4_level5=1
<region>sample=../Sample/Wave91.wav lokey=72 hikey=72 pitch_keycenter=66 tune=-1454 pan=0 eg2_cutoff=4864 eg2_sustain=4 eg2_time1=0 eg2_time2=0 eg2_time3=0.0489896 eg2_time4=0 eg2_time5=0 eg2_level1=0 eg2_level2=1 eg2_level3=0.9055118 eg2_level4=0.9055118 eg2_level5=1 eg3_amplitude=100 eg3_sustain=4 eg3_time1=0 eg3_time2=0 eg3_time3=0.0737749 eg3_time4=0.0420581 eg3_time5=0.1155936 eg3_level1=0 eg3_level2=1 eg3_level3=0.9117225 eg3_level4=0 eg3_level5=0 amplitude_cc16=83.4645669 ampeg_attack=0 ampeg_release=0.1155936 eg4_time1=0 eg4_time2=0 eg4_time3=0.0737749 eg4_time4=0.0420581 eg4_time5=0.1155936 eg4_level1=1 eg4_level2=1 eg4_level3=1 eg4_level4=1 eg4_level5=1
<region>sample=../Sample/Wave91.wav lokey=73 hikey=73 pitch_keycenter=66 tune=-1504 pan=0 eg2_cutoff=4864 eg2_sustain=4 eg2_time1=0 eg2_time2=0 eg2_time3=0.0489896 eg2_time4=0 eg2_time5=0 eg2_level1=0 eg2_level2=1 eg2_level3=0.9055118 eg2_level4=0.9055118 eg2_level5=1 eg3_amplitude=100 eg3_sustain=4 eg3_time1=0 eg3_time2=0 eg3_time3=0.0721617 eg3_time4=0.0411385 eg3_time5=0.113066 eg3_level1=0 eg3_level2=1 eg3_level3=0.9117225 eg3_level4=0 eg3_level5=0 amplitude_cc16=83.4645669 ampeg_attack=0 ampeg_release=0.113066 eg4_time1=0 eg4_time2=0 eg4_time3=0.0721617 eg4_time4=0.0411385 eg4_time5=0.113066 eg4_level1=1 eg4_level2=1 eg4_level3=1 eg4_level4=1 eg4_level5=1
<region>sample=../Sample/Wave91.wav lokey=74 hikey=74 pitch_keycenter=66 tune=-1554 pan=0 eg2_cutoff=4864 eg2_sustain=4 eg2_time1=0 eg2_time2=0 eg2_time3=0.0489896 eg2_time4=0 eg2_time5=0 eg2_level1=0 eg2_level2=1 eg2_level3=0.9055118 eg2_level4=0.9055118 eg2_level5=1 eg3_amplitude=100 eg3_sustain=4 eg3_time1=0 eg3_time2=0 eg3_time3=0.0705837 eg3_time4=0.0402389 eg3_time5=0.1105936 eg3_level1=0 eg3_level2=1 eg3_level3=0.9117225 eg3_level4=0 eg3_level5=0 amplitude_cc16=83.4645669 ampeg_attack=0 ampeg_release=0.1105936 eg4_time1=0 eg4_time2=0 eg4_time3=0.0705837 eg4_time4=0.0402389 eg4_time5=0.1105936 eg4_level1=1 eg4_level2=1 eg4_level3=1 eg4_level4=1 eg4_level5=1
<region>sample=../Sample/Wave91.wav lokey=75 hikey=75 pitch_keycenter=66 tune=-1604 pan=0 eg2_cutoff=4864 eg2_sustain=4 eg2_time1=0 eg2_time2=0 eg2_time3=0.0489896 eg2_time4=0 eg2_time5=0 eg2_level1=0 eg2_level2=1 eg2_level3=0.9055118 eg2_level4=0.9055118 eg2_level5=1 eg3_amplitude=100 eg3_sustain=4 eg3_time1=0 eg3_time2=0 eg3_time3=0.0690403 eg3_time4=0.039359 eg3_time5=0.1081752 eg3_level1=0 eg3_level2=1 eg3_level3=0.9117225 eg3_level4=0 eg3_level5=0 amplitude_cc16=83.4645669 ampeg_attack=0 ampeg_release=0.1081752 eg4_time1=0 eg4_time2=0 eg4_time3=0.0690403 eg4_time4=0.039359 eg4_time5=0.1081752 eg4_level1=1 eg4_level2=1 eg4_level3=1 eg4_level4=1 eg4_level5=1
<region>sample=../Sample/Wave91.wav lokey=76 hikey=76 pitch_keycenter=66 tune=-1654 pan=0 eg2_cutoff=4864 eg2_sustain=4 eg2_time1=0 eg2_time2=0 eg2_time3=0.0489896 eg2_time4=0 eg2_time5=0 eg2_level1=0 eg2_level2=1 eg2_level3=0.9055118 eg2_level4=0.9055118 eg2_level5=1 eg3_amplitude=100 eg3_sustain=4 eg3_time1=0 eg3_time2=0 eg3_time3=0.0675306 eg3_time4=0.0384983 eg3_time5=0.1058098 eg3_level1=0 eg3_level2=1 eg3_level3=0.9117225 eg3_level4=0 eg3_level5=0 amplitude_cc16=83.4645669 ampeg_attack=0 ampeg_release=0.1058098 eg4_time1=0 eg4_time2=0 eg4_time3=0.0675306 eg4_time4=0.0384983 eg4_time5=0.1058098 eg4_level1=1 eg4_level2=1 eg4_level3=1 eg4_level4=1 eg4_level5=1
<region>sample=../Sample/Wave91.wav lokey=77 hikey=77 pitch_keycenter=66 tune=-1704 pan=0 eg2_cutoff=4864 eg2_sustain=4 eg2_time1=0 eg2_time2=0 eg2_time3=0.0489896 eg2_time4=0 eg2_time5=0 eg2_level1=0 eg2_level2=1 eg2_level3=0.9055118 eg2_level4=0.9055118 eg2_level5=1 eg3_amplitude=100 eg3_sustain=4 eg3_time1=0 eg3_time2=0 eg3_time3=0.0660539 eg3_time4=0.0376565 eg3_time5=0.103496 eg3_level1=0 eg3_level2=1 eg3_level3=0.9117225 eg3_level4=0 eg3_level5=0 amplitude_cc16=83.4645669 ampeg_attack=0 ampeg_release=0.103496 eg4_time1=0 eg4_time2=0 eg4_time3=0.0660539 eg4_time4=0.0376565 eg4_time5=0.103496 eg4_level1=1 eg4_level2=1 eg4_level3=1 eg4_level4=1 eg4_level5=1
<region>sample=../Sample/Wave91.wav lokey=78 hikey=78 pitch_keycenter=66 tune=-1754 pan=0 eg2_cutoff=4864 eg2_sustain=4 eg2_time1=0 eg2_time2=0 eg2_time3=0.0489896 eg2_time4=0 eg2_time5=0 eg2_level1=0 eg2_level2=1 eg2_level3=0.9055118 eg2_level4=0.9055118 eg2_level5=1 eg3_amplitude=100 eg3_sustain=4 eg3_time1=0 eg3_time2=0 eg3_time3=0.0646095 eg3_time4=0.0368331 eg3_time5=0.1012329 eg3_level1=0 eg3_level2=1 eg3_level3=0.9117225 eg3_level4=0 eg3_level5=0 amplitude_cc16=83.4645669 ampeg_attack=0 ampeg_release=0.1012329 eg4_time1=0 eg4_time2=0 eg4_time3=0.0646095 eg4_time4=0.0368331 eg4_time5=0.1012329 eg4_level1=1 eg4_level2=1 eg4_level3=1 eg4_level4=1 eg4_level5=1
<region>sample=../Sample/Wave91.wav lokey=79 hikey=79 pitch_keycenter=66 tune=-1804 pan=0 eg2_cutoff=4864 eg2_sustain=4 eg2_time1=0 eg2_time2=0 eg2_time3=0.0489896 eg2_time4=0 eg2_time5=0 eg2_level1=0 eg2_level2=1 eg2_level3=0.9055118 eg2_level4=0.9055118 eg2_level5=1 eg3_amplitude=100 eg3_sustain=4 eg3_time1=0 eg3_time2=0 eg3_time3=0.0631967 eg3_time4=0.0360276 eg3_time5=0.0990192 eg3_level1=0 eg3_level2=1 eg3_level3=0.9117225 eg3_level4=0 eg3_level5=0 amplitude_cc16=83.4645669 ampeg_attack=0 ampeg_release=0.0990192 eg4_time1=0 eg4_time2=0 eg4_time3=0.0631967 eg4_time4=0.0360276 eg4_time5=0.0990192 eg4_level1=1 eg4_level2=1 eg4_level3=1 eg4_level4=1 eg4_level5=1
<region>sample=../Sample/Wave91.wav lokey=80 hikey=80 pitch_keycenter=66 tune=-1854 pan=0 eg2_cutoff=4864 eg2_sustain=4 eg2_time1=0 eg2_time2=0 eg2_time3=0.0489896 eg2_time4=0 eg2_time5=0 eg2_level1=0 eg2_level2=1 eg2_level3=0.9055118 eg2_level4=0.9055118 eg2_level5=1 eg3_amplitude=100 eg3_sustain=4 eg3_time1=0 eg3_time2=0 eg3_time3=0.0618148 eg3_time4=0.0352398 eg3_time5=0.096854 eg3_level1=0 eg3_level2=1 eg3_level3=0.9117225 eg3_level4=0 eg3_level5=0 amplitude_cc16=83.4645669 ampeg_attack=0 ampeg_release=0.096854 eg4_time1=0 eg4_time2=0 eg4_time3=0.0618148 eg4_time4=0.0352398 eg4_time5=0.096854 eg4_level1=1 eg4_level2=1 eg4_level3=1 eg4_level4=1 eg4_level5=1
<region>sample=../Sample/Wave91.wav lokey=81 hikey=81 pitch_keycenter=66 tune=-1904 pan=0 eg2_cutoff=4864 eg2_sustain=4 eg2_time1=0 eg2_time2=0 eg2_time3=0.0489896 eg2_time4=0 eg2_time5=0 eg2_level1=0 eg2_level2=1 eg2_level3=0.9055118 eg2_level4=0.9055118 eg2_level5=1 eg3_amplitude=100 eg3_sustain=4 eg3_time1=0 eg3_time2=0 eg3_time3=0.0604631 eg3_time4=0.0344692 eg3_time5=0.0947361 eg3_level1=0 eg3_level2=1 eg3_level3=0.9117225 eg3_level4=0 eg3_level5=0 amplitude_cc16=83.4645669 ampeg_attack=0 ampeg_release=0.0947361 eg4_time1=0 eg4_time2=0 eg4_time3=0.0604631 eg4_time4=0.0344692 eg4_time5=0.0947361 eg4_level1=1 eg4_level2=1 eg4_level3=1 eg4_level4=1 eg4_level5=1
<region>sample=../Sample/Wave91.wav lokey=82 hikey=82 pitch_keycenter=66 tune=-1954 pan=0 eg2_cutoff=4864 eg2_sustain=4 eg2_time1=0 eg2_time2=0 eg2_time3=0.0489896 eg2_time4=0 eg2_time5=0 eg2_level1=0 eg2_level2=1 eg2_level3=0.9055118 eg2_level4=0.9055118 eg2_level5=1 eg3_amplitude=100 eg3_sustain=4 eg3_time1=0 eg3_time2=0 eg3_time3=0.059141 eg3_time4=0.0337155 eg3_time5=0.0926645 eg3_level1=0 eg3_level2=1 eg3_level3=0.9117225 eg3_level4=0 eg3_level5=0 amplitude_cc16=83.4645669 ampeg_attack=0 ampeg_release=0.0926645 eg4_time1=0 eg4_time2=0 eg4_time3=0.059141 eg4_time4=0.0337155 eg4_time5=0.0926645 eg4_level1=1 eg4_level2=1 eg4_level3=1 eg4_level4=1 eg4_level5=1
<region>sample=../Sample/Wave91.wav lokey=83 hikey=83 pitch_keycenter=66 tune=-2004 pan=0 eg2_cutoff=4864 eg2_sustain=4 eg2_time1=0 eg2_time2=0 eg2_time3=0.0489896 eg2_time4=0 eg2_time5=0 eg2_level1=0 eg2_level2=1 eg2_level3=0.9055118 eg2_level4=0.9055118 eg2_level5=1 eg3_amplitude=100 eg3_sustain=4 eg3_time1=0 eg3_time2=0 eg3_time3=0.0578477 eg3_time4=0.0329783 eg3_time5=0.0906382 eg3_level1=0 eg3_level2=1 eg3_level3=0.9117225 eg3_level4=0 eg3_level5=0 amplitude_cc16=83.4645669 ampeg_attack=0 ampeg_release=0.0906382 eg4_time1=0 eg4_time2=0 eg4_time3=0.0578477 eg4_time4=0.0329783 eg4_time5=0.0906382 eg4_level1=1 eg4_level2=1 eg4_level3=1 eg4_level4=1 eg4_level5=1
<region>sample=../Sample/Wave91.wav lokey=84 hikey=84 pitch_keycenter=66 tune=-2054 pan=0 eg2_cutoff=4864 eg2_sustain=4 eg2_time1=0 eg2_time2=0 eg2_time3=0.0489896 eg2_time4=0 eg2_time5=0 eg2_level1=0 eg2_level2=1 eg2_level3=0.9055118 eg2_level4=0.9055118 eg2_level5=1 eg3_amplitude=100 eg3_sustain=4 eg3_time1=0 eg3_time2=0 eg3_time3=0.0565828 eg3_time4=0.0322571 eg3_time5=0.0886563 eg3_level1=0 eg3_level2=1 eg3_level3=0.9117225 eg3_level4=0 eg3_level5=0 amplitude_cc16=83.4645669 ampeg_attack=0 ampeg_release=0.0886563 eg4_time1=0 eg4_time2=0 eg4_time3=0.0565828 eg4_time4=0.0322571 eg4_time5=0.0886563 eg4_level1=1 eg4_level2=1 eg4_level3=1 eg4_level4=1 eg4_level5=1
<region>sample=../Sample/Wave91.wav lokey=85 hikey=85 pitch_keycenter=66 tune=-2104 pan=0 eg2_cutoff=4864 eg2_sustain=4 eg2_time1=0 eg2_time2=0 eg2_time3=0.0489896 eg2_time4=0 eg2_time5=0 eg2_level1=0 eg2_level2=1 eg2_level3=0.9055118 eg2_level4=0.9055118 eg2_level5=1 eg3_amplitude=100 eg3_sustain=4 eg3_time1=0 eg3_time2=0 eg3_time3=0.0553455 eg3_time4=0.0315518 eg3_time5=0.0867176 eg3_level1=0 eg3_level2=1 eg3_level3=0.9117225 eg3_level4=0 eg3_level5=0 amplitude_cc16=83.4645669 ampeg_attack=0 ampeg_release=0.0867176 eg4_time1=0 eg4_time2=0 eg4_time3=0.0553455 eg4_time4=0.0315518 eg4_time5=0.0867176 eg4_level1=1 eg4_level2=1 eg4_level3=1 eg4_level4=1 eg4_level5=1
<region>sample=../Sample/Wave91.wav lokey=86 hikey=86 pitch_keycenter=66 tune=-2154 pan=0 eg2_cutoff=4864 eg2_sustain=4 eg2_time1=0 eg2_time2=0 eg2_time3=0.0489896 eg2_time4=0 eg2_time5=0 eg2_level1=0 eg2_level2=1 eg2_level3=0.9055118 eg2_level4=0.9055118 eg2_level5=1 eg3_amplitude=100 eg3_sustain=4 eg3_time1=0 eg3_time2=0 eg3_time3=0.0541353 eg3_time4=0.0308618 eg3_time5=0.0848214 eg3_level1=0 eg3_level2=1 eg3_level3=0.9117225 eg3_level4=0 eg3_level5=0 amplitude_cc16=83.4645669 ampeg_attack=0 ampeg_release=0.0848214 eg4_time1=0 eg4_time2=0 eg4_time3=0.0541353 eg4_time4=0.0308618 eg4_time5=0.0848214 eg4_level1=1 eg4_level2=1 eg4_level3=1 eg4_level4=1 eg4_level5=1
<region>sample=../Sample/Wave91.wav lokey=87 hikey=87 pitch_keycenter=66 tune=-2204 pan=0 eg2_cutoff=4864 eg2_sustain=4 eg2_time1=0 eg2_time2=0 eg2_time3=0.0489896 eg2_time4=0 eg2_time5=0 eg2_level1=0 eg2_level2=1 eg2_level3=0.9055118 eg2_level4=0.9055118 eg2_level5=1 eg3_amplitude=100 eg3_sustain=4 eg3_time1=0 eg3_time2=0 eg3_time3=0.0529515 eg3_time4=0.030187 eg3_time5=0.0829666 eg3_level1=0 eg3_level2=1 eg3_level3=0.9117225 eg3_level4=0 eg3_level5=0 amplitude_cc16=83.4645669 ampeg_attack=0 ampeg_release=0.0829666 eg4_time1=0 eg4_time2=0 eg4_time3=0.0529515 eg4_time4=0.030187 eg4_time5=0.0829666 eg4_level1=1 eg4_level2=1 eg4_level3=1 eg4_level4=1 eg4_level5=1
<region>sample=../Sample/Wave91.wav lokey=88 hikey=88 pitch_keycenter=66 tune=-2254 pan=0 eg2_cutoff=4864 eg2_sustain=4 eg2_time1=0 eg2_time2=0 eg2_time3=0.0489896 eg2_time4=0 eg2_time5=0 eg2_level1=0 eg2_level2=1 eg2_level3=0.9055118 eg2_level4=0.9055118 eg2_level5=1 eg3_amplitude=100 eg3_sustain=4 eg3_time1=0 eg3_time2=0 eg3_time3=0.0517936 eg3_time4=0.0295269 eg3_time5=0.0811524 eg3_level1=0 eg3_level2=1 eg3_level3=0.9117225 eg3_level4=0 eg3_level5=0 amplitude_cc16=83.4645669 ampeg_attack=0 ampeg_release=0.0811524 eg4_time1=0 eg4_time2=0 eg4_time3=0.0517936 eg4_time4=0.0295269 eg4_time5=0.0811524 eg4_level1=1 eg4_level2=1 eg4_level3=1 eg4_level4=1 eg4_level5=1
<region>sample=../Sample/Wave91.wav lokey=89 hikey=89 pitch_keycenter=66 tune=-2304 pan=0 eg2_cutoff=4864 eg2_sustain=4 eg2_time1=0 eg2_time2=0 eg2_time3=0.0489896 eg2_time4=0 eg2_time5=0 eg2_level1=0 eg2_level2=1 eg2_level3=0.9055118 eg2_level4=0.9055118 eg2_level5=1 eg3_amplitude=100 eg3_sustain=4 eg3_time1=0 eg3_time2=0 eg3_time3=0.050661 eg3_time4=0.0288812 eg3_time5=0.0793778 eg3_level1=0 eg3_level2=1 eg3_level3=0.9117225 eg3_level4=0 eg3_level5=0 amplitude_cc16=83.4645669 ampeg_attack=0 ampeg_release=0.0793778 eg4_time1=0 eg4_time2=0 eg4_time3=0.050661 eg4_time4=0.0288812 eg4_time5=0.0793778 eg4_level1=1 eg4_level2=1 eg4_level3=1 eg4_level4=1 eg4_level5=1
<region>sample=../Sample/Wave91.wav lokey=90 hikey=90 pitch_keycenter=66 tune=-2354 pan=0 eg2_cutoff=4864 eg2_sustain=4 eg2_time1=0 eg2_time2=0 eg2_time3=0.0489896 eg2_time4=0 eg2_time5=0 eg2_level1=0 eg2_level2=1 eg2_level3=0.9055118 eg2_level4=0.9055118 eg2_level5=1 eg3_amplitude=100 eg3_sustain=4 eg3_time1=0 eg3_time2=0 eg3_time3=0.0495532 eg3_time4=0.0282497 eg3_time5=0.0776421 eg3_level1=0 eg3_level2=1 eg3_level3=0.9117225 eg3_level4=0 eg3_level5=0 amplitude_cc16=83.4645669 ampeg_attack=0 ampeg_release=0.0776421 eg4_time1=0 eg4_time2=0 eg4_time3=0.0495532 eg4_time4=0.0282497 eg4_time5=0.0776421 eg4_level1=1 eg4_level2=1 eg4_level3=1 eg4_level4=1 eg4_level5=1
<region>sample=../Sample/Wave91.wav lokey=91 hikey=91 pitch_keycenter=66 tune=-2404 pan=0 eg2_cutoff=4864 eg2_sustain=4 eg2_time1=0 eg2_time2=0 eg2_time3=0.0489896 eg2_time4=0 eg2_time5=0 eg2_level1=0 eg2_level2=1 eg2_level3=0.9055118 eg2_level4=0.9055118 eg2_level5=1 eg3_amplitude=100 eg3_sustain=4 eg3_time1=0 eg3_time2=0 eg3_time3=0.0484697 eg3_time4=0.0276319 eg3_time5=0.0759443 eg3_level1=0 eg3_level2=1 eg3_level3=0.9117225 eg3_level4=0 eg3_level5=0 amplitude_cc16=83.4645669 ampeg_attack=0 ampeg_release=0.0759443 eg4_time1=0 eg4_time2=0 eg4_time3=0.0484697 eg4_time4=0.0276319 eg4_time5=0.0759443 eg4_level1=1 eg4_level2=1 eg4_level3=1 eg4_level4=1 eg4_level5=1
<region>sample=../Sample/Wave91.wav lokey=92 hikey=92 pitch_keycenter=66 tune=-2454 pan=0 eg2_cutoff=4864 eg2_sustain=4 eg2_time1=0 eg2_time2=0 eg2_time3=0.0489896 eg2_time4=0 eg2_time5=0 eg2_level1=0 eg2_level2=1 eg2_level3=0.9055118 eg2_level4=0.9055118 eg2_level5=1 eg3_amplitude=100 eg3_sustain=4 eg3_time1=0 eg3_time2=0 eg3_time3=0.0474098 eg3_time4=0.0270277 eg3_time5=0.0742836 eg3_level1=0 eg3_level2=1 eg3_level3=0.9117225 eg3_level4=0 eg3_level5=0 amplitude_cc16=83.4645669 ampeg_attack=0 ampeg_release=0.0742836 eg4_time1=0 eg4_time2=0 eg4_time3=0.0474098 eg4_time4=0.0270277 eg4_time5=0.0742836 eg4_level1=1 eg4_level2=1 eg4_level3=1 eg4_level4=1 eg4_level5=1
<region>sample=../Sample/Wave91.wav lokey=93 hikey=93 pitch_keycenter=66 tune=-2504 pan=0 eg2_cutoff=4864 eg2_sustain=4 eg2_time1=0 eg2_time2=0 eg2_time3=0.0489896 eg2_time4=0 eg2_time5=0 eg2_level1=0 eg2_level2=1 eg2_level3=0.9055118 eg2_level4=0.9055118 eg2_level5=1 eg3_amplitude=100 eg3_sustain=4 eg3_time1=0 eg3_time2=0 eg3_time3=0.0463731 eg3_time4=0.0264367 eg3_time5=0.0726593 eg3_level1=0 eg3_level2=1 eg3_level3=0.9117225 eg3_level4=0 eg3_level5=0 amplitude_cc16=83.4645669 ampeg_attack=0 ampeg_release=0.0726593 eg4_time1=0 eg4_time2=0 eg4_time3=0.0463731 eg4_time4=0.0264367 eg4_time5=0.0726593 eg4_level1=1 eg4_level2=1 eg4_level3=1 eg4_level4=1 eg4_level5=1
<region>sample=../Sample/Wave91.wav lokey=94 hikey=94 pitch_keycenter=66 tune=-2554 pan=0 eg2_cutoff=4864 eg2_sustain=4 eg2_time1=0 eg2_time2=0 eg2_time3=0.0489896 eg2_time4=0 eg2_time5=0 eg2_level1=0 eg2_level2=1 eg2_level3=0.9055118 eg2_level4=0.9055118 eg2_level5=1 eg3_amplitude=100 eg3_sustain=4 eg3_time1=0 eg3_time2=0 eg3_time3=0.045359 eg3_time4=0.0258586 eg3_time5=0.0710704 eg3_level1=0 eg3_level2=1 eg3_level3=0.9117225 eg3_level4=0 eg3_level5=0 amplitude_cc16=83.4645669 ampeg_attack=0 ampeg_release=0.0710704 eg4_time1=0 eg4_time2=0 eg4_time3=0.045359 eg4_time4=0.0258586 eg4_time5=0.0710704 eg4_level1=1 eg4_level2=1 eg4_level3=1 eg4_level4=1 eg4_level5=1
<region>sample=../Sample/Wave91.wav lokey=95 hikey=95 pitch_keycenter=66 tune=-2604 pan=0 eg2_cutoff=4864 eg2_sustain=4 eg2_time1=0 eg2_time2=0 eg2_time3=0.0489896 eg2_time4=0 eg2_time5=0 eg2_level1=0 eg2_level2=1 eg2_level3=0.9055118 eg2_level4=0.9055118 eg2_level5=1 eg3_amplitude=100 eg3_sustain=4 eg3_time1=0 eg3_time2=0 eg3_time3=0.0443672 eg3_time4=0.0252932 eg3_time5=0.0695164 eg3_level1=0 eg3_level2=1 eg3_level3=0.9117225 eg3_level4=0 eg3_level5=0 amplitude_cc16=83.4645669 ampeg_attack=0 ampeg_release=0.0695164 eg4_time1=0 eg4_time2=0 eg4_time3=0.0443672 eg4_time4=0.0252932 eg4_time5=0.0695164 eg4_level1=1 eg4_level2=1 eg4_level3=1 eg4_level4=1 eg4_level5=1
<region>sample=../Sample/Wave91.wav lokey=96 hikey=96 pitch_keycenter=66 tune=-2654 pan=0 eg2_cutoff=4864 eg2_sustain=4 eg2_time1=0 eg2_time2=0 eg2_time3=0.0489896 eg2_time4=0 eg2_time5=0 eg2_level1=0 eg2_level2=1 eg2_level3=0.9055118 eg2_level4=0.9055118 eg2_level5=1 eg3_amplitude=100 eg3_sustain=4 eg3_time1=0 eg3_time2=0 eg3_time3=0.043397 eg3_time4=0.0247401 eg3_time5=0.0679963 eg3_level1=0 eg3_level2=1 eg3_level3=0.9117225 eg3_level4=0 eg3_level5=0 amplitude_cc16=83.4645669 ampeg_attack=0 ampeg_release=0.0679963 eg4_time1=0 eg4_time2=0 eg4_time3=0.043397 eg4_time4=0.0247401 eg4_time5=0.0679963 eg4_level1=1 eg4_level2=1 eg4_level3=1 eg4_level4=1 eg4_level5=1
<region>sample=../Sample/Wave91.wav lokey=97 hikey=97 pitch_keycenter=66 tune=-2704 pan=0 eg2_cutoff=4864 eg2_sustain=4 eg2_time1=0 eg2_time2=0 eg2_time3=0.0489896 eg2_time4=0 eg2_time5=0 eg2_level1=0 eg2_level2=1 eg2_level3=0.9055118 eg2_level4=0.9055118 eg2_level5=1 eg3_amplitude=100 eg3_sustain=4 eg3_time1=0 eg3_time2=0 eg3_time3=0.0424481 eg3_time4=0.0241991 eg3_time5=0.0665094 eg3_level1=0 eg3_level2=1 eg3_level3=0.9117225 eg3_level4=0 eg3_level5=0 amplitude_cc16=83.4645669 ampeg_attack=0 ampeg_release=0.0665094 eg4_time1=0 eg4_time2=0 eg4_time3=0.0424481 eg4_time4=0.0241991 eg4_time5=0.0665094 eg4_level1=1 eg4_level2=1 eg4_level3=1 eg4_level4=1 eg4_level5=1
<region>sample=../Sample/Wave91.wav lokey=98 hikey=98 pitch_keycenter=66 tune=-2754 pan=0 eg2_cutoff=4864 eg2_sustain=4 eg2_time1=0 eg2_time2=0 eg2_time3=0.0489896 eg2_time4=0 eg2_time5=0 eg2_level1=0 eg2_level2=1 eg2_level3=0.9055118 eg2_level4=0.9055118 eg2_level5=1 eg3_amplitude=100 eg3_sustain=4 eg3_time1=0 eg3_time2=0 eg3_time3=0.0415198 eg3_time4=0.0236699 eg3_time5=0.065055 eg3_level1=0 eg3_level2=1 eg3_level3=0.9117225 eg3_level4=0 eg3_level5=0 amplitude_cc16=83.4645669 ampeg_attack=0 ampeg_release=0.065055 eg4_time1=0 eg4_time2=0 eg4_time3=0.0415198 eg4_time4=0.0236699 eg4_time5=0.065055 eg4_level1=1 eg4_level2=1 eg4_level3=1 eg4_level4=1 eg4_level5=1
<region>sample=../Sample/Wave91.wav lokey=99 hikey=99 pitch_keycenter=66 tune=-2804 pan=0 eg2_cutoff=4864 eg2_sustain=4 eg2_time1=0 eg2_time2=0 eg2_time3=0.0489896 eg2_time4=0 eg2_time5=0 eg2_level1=0 eg2_level2=1 eg2_level3=0.9055118 eg2_level4=0.9055118 eg2_level5=1 eg3_amplitude=100 eg3_sustain=4 eg3_time1=0 eg3_time2=0 eg3_time3=0.0406119 eg3_time4=0.0231523 eg3_time5=0.0636325 eg3_level1=0 eg3_level2=1 eg3_level3=0.9117225 eg3_level4=0 eg3_level5=0 amplitude_cc16=83.4645669 ampeg_attack=0 ampeg_release=0.0636325 eg4_time1=0 eg4_time2=0 eg4_time3=0.0406119 eg4_time4=0.0231523 eg4_time5=0.0636325 eg4_level1=1 eg4_level2=1 eg4_level3=1 eg4_level4=1 eg4_level5=1
<region>sample=../Sample/Wave91.wav lokey=100 hikey=100 pitch_keycenter=66 tune=-2854 pan=0 eg2_cutoff=4864 eg2_sustain=4 eg2_time1=0 eg2_time2=0 eg2_time3=0.0489896 eg2_time4=0 eg2_time5=0 eg2_level1=0 eg2_level2=1 eg2_level3=0.9055118 eg2_level4=0.9055118 eg2_level5=1 eg3_amplitude=100 eg3_sustain=4 eg3_time1=0 eg3_time2=0 eg3_time3=0.0397239 eg3_time4=0.0226461 eg3_time5=0.062241 eg3_level1=0 eg3_level2=1 eg3_level3=0.9117225 eg3_level4=0 eg3_level5=0 amplitude_cc16=83.4645669 ampeg_attack=0 ampeg_release=0.062241 eg4_time1=0 eg4_time2=0 eg4_time3=0.0397239 eg4_time4=0.0226461 eg4_time5=0.062241 eg4_level1=1 eg4_level2=1 eg4_level3=1 eg4_level4=1 eg4_level5=1
<region>sample=../Sample/Wave91.wav lokey=101 hikey=101 pitch_keycenter=66 tune=-2904 pan=0 eg2_cutoff=4864 eg2_sustain=4 eg2_time1=0 eg2_time2=0 eg2_time3=0.0489896 eg2_time4=0 eg2_time5=0 eg2_level1=0 eg2_level2=1 eg2_level3=0.9055118 eg2_level4=0.9055118 eg2_level5=1 eg3_amplitude=100 eg3_sustain=4 eg3_time1=0 eg3_time2=0 eg3_time3=0.0388552 eg3_time4=0.0221509 eg3_time5=0.06088 eg3_level1=0 eg3_level2=1 eg3_level3=0.9117225 eg3_level4=0 eg3_level5=0 amplitude_cc16=83.4645669 ampeg_attack=0 ampeg_release=0.06088 eg4_time1=0 eg4_time2=0 eg4_time3=0.0388552 eg4_time4=0.0221509 eg4_time5=0.06088 eg4_level1=1 eg4_level2=1 eg4_level3=1 eg4_level4=1 eg4_level5=1
<region>sample=../Sample/Wave91.wav lokey=102 hikey=102 pitch_keycenter=66 tune=-2954 pan=0 eg2_cutoff=4864 eg2_sustain=4 eg2_time1=0 eg2_time2=0 eg2_time3=0.0489896 eg2_time4=0 eg2_time5=0 eg2_level1=0 eg2_level2=1 eg2_level3=0.9055118 eg2_level4=0.9055118 eg2_level5=1 eg3_amplitude=100 eg3_sustain=4 eg3_time1=0 eg3_time2=0 eg3_time3=0.0380056 eg3_time4=0.0216665 eg3_time5=0.0595488 eg3_level1=0 eg3_level2=1 eg3_level3=0.9117225 eg3_level4=0 eg3_level5=0 amplitude_cc16=83.4645669 ampeg_attack=0 ampeg_release=0.0595488 eg4_time1=0 eg4_time2=0 eg4_time3=0.0380056 eg4_time4=0.0216665 eg4_time5=0.0595488 eg4_level1=1 eg4_level2=1 eg4_level3=1 eg4_level4=1 eg4_level5=1
<region>sample=../Sample/Wave91.wav lokey=103 hikey=103 pitch_keycenter=66 tune=-3004 pan=0 eg2_cutoff=4864 eg2_sustain=4 eg2_time1=0 eg2_time2=0 eg2_time3=0.0489896 eg2_time4=0 eg2_time5=0 eg2_level1=0 eg2_level2=1 eg2_level3=0.9055118 eg2_level4=0.9055118 eg2_level5=1 eg3_amplitude=100 eg3_sustain=4 eg3_time1=0 eg3_time2=0 eg3_time3=0.0371745 eg3_time4=0.0211927 eg3_time5=0.0582466 eg3_level1=0 eg3_level2=1 eg3_level3=0.9117225 eg3_level4=0 eg3_level5=0 amplitude_cc16=83.4645669 ampeg_attack=0 ampeg_release=0.0582466 eg4_time1=0 eg4_time2=0 eg4_time3=0.0371745 eg4_time4=0.0211927 eg4_time5=0.0582466 eg4_level1=1 eg4_level2=1 eg4_level3=1 eg4_level4=1 eg4_level5=1
<region>sample=../Sample/Wave91.wav lokey=104 hikey=104 pitch_keycenter=66 tune=-3054 pan=0 eg2_cutoff=4864 eg2_sustain=4 eg2_time1=0 eg2_time2=0 eg2_time3=0.0489896 eg2_time4=0 eg2_time5=0 eg2_level1=0 eg2_level2=1 eg2_level3=0.9055118 eg2_level4=0.9055118 eg2_level5=1 eg3_amplitude=100 eg3_sustain=4 eg3_time1=0 eg3_time2=0 eg3_time3=0.0363616 eg3_time4=0.0207293 eg3_time5=0.0569729 eg3_level1=0 eg3_level2=1 eg3_level3=0.9117225 eg3_level4=0 eg3_level5=0 amplitude_cc16=83.4645669 ampeg_attack=0 ampeg_release=0.0569729 eg4_time1=0 eg4_time2=0 eg4_time3=0.0363616 eg4_time4=0.0207293 eg4_time5=0.0569729 eg4_level1=1 eg4_level2=1 eg4_level3=1 eg4_level4=1 eg4_level5=1
<region>sample=../Sample/Wave91.wav lokey=105 hikey=105 pitch_keycenter=66 tune=-3104 pan=0 eg2_cutoff=4864 eg2_sustain=4 eg2_time1=0 eg2_time2=0 eg2_time3=0.0489896 eg2_time4=0 eg2_time5=0 eg2_level1=0 eg2_level2=1 eg2_level3=0.9055118 eg2_level4=0.9055118 eg2_level5=1 eg3_amplitude=100 eg3_sustain=4 eg3_time1=0 eg3_time2=0 eg3_time3=0.0355665 eg3_time4=0.020276 eg3_time5=0.0557271 eg3_level1=0 eg3_level2=1 eg3_level3=0.9117225 eg3_level4=0 eg3_level5=0 amplitude_cc16=83.4645669 ampeg_attack=0 ampeg_release=0.0557271 eg4_time1=0 eg4_time2=0 eg4_time3=0.0355665 eg4_time4=0.020276 eg4_time5=0.0557271 eg4_level1=1 eg4_level2=1 eg4_level3=1 eg4_level4=1 eg4_level5=1
<region>sample=../Sample/Wave91.wav lokey=106 hikey=106 pitch_keycenter=66 tune=-3154 pan=0 eg2_cutoff=4864 eg2_sustain=4 eg2_time1=0 eg2_time2=0 eg2_time3=0.0489896 eg2_time4=0 eg2_time5=0 eg2_level1=0 eg2_level2=1 eg2_level3=0.9055118 eg2_level4=0.9055118 eg2_level5=1 eg3_amplitude=100 eg3_sustain=4 eg3_time1=0 eg3_time2=0 eg3_time3=0.0347888 eg3_time4=0.0198327 eg3_time5=0.0545085 eg3_level1=0 eg3_level2=1 eg3_level3=0.9117225 eg3_level4=0 eg3_level5=0 amplitude_cc16=83.4645669 ampeg_attack=0 ampeg_release=0.0545085 eg4_time1=0 eg4_time2=0 eg4_time3=0.0347888 eg4_time4=0.0198327 eg4_time5=0.0545085 eg4_level1=1 eg4_level2=1 eg4_level3=1 eg4_level4=1 eg4_level5=1
<region>sample=../Sample/Wave91.wav lokey=107 hikey=107 pitch_keycenter=66 tune=-3204 pan=0 eg2_cutoff=4864 eg2_sustain=4 eg2_time1=0 eg2_time2=0 eg2_time3=0.0489896 eg2_time4=0 eg2_time5=0 eg2_level1=0 eg2_level2=1 eg2_level3=0.9055118 eg2_level4=0.9055118 eg2_level5=1 eg3_amplitude=100 eg3_sustain=4 eg3_time1=0 eg3_time2=0 eg3_time3=0.0340281 eg3_time4=0.019399 eg3_time5=0.0533166 eg3_level1=0 eg3_level2=1 eg3_level3=0.9117225 eg3_level4=0 eg3_level5=0 amplitude_cc16=83.4645669 ampeg_attack=0 ampeg_release=0.0533166 eg4_time1=0 eg4_time2=0 eg4_time3=0.0340281 eg4_time4=0.019399 eg4_time5=0.0533166 eg4_level1=1 eg4_level2=1 eg4_level3=1 eg4_level4=1 eg4_level5=1
<region>sample=../Sample/Wave91.wav lokey=108 hikey=108 pitch_keycenter=66 tune=-3254 pan=0 eg2_cutoff=4864 eg2_sustain=4 eg2_time1=0 eg2_time2=0 eg2_time3=0.0489896 eg2_time4=0 eg2_time5=0 eg2_level1=0 eg2_level2=1 eg2_level3=0.9055118 eg2_level4=0.9055118 eg2_level5=1 eg3_amplitude=100 eg3_sustain=4 eg3_time1=0 eg3_time2=0 eg3_time3=0.033284 eg3_time4=0.0189748 eg3_time5=0.0521507 eg3_level1=0 eg3_level2=1 eg3_level3=0.9117225 eg3_level4=0 eg3_level5=0 amplitude_cc16=83.4645669 ampeg_attack=0 ampeg_release=0.0521507 eg4_time1=0 eg4_time2=0 eg4_time3=0.033284 eg4_time4=0.0189748 eg4_time5=0.0521507 eg4_level1=1 eg4_level2=1 eg4_level3=1 eg4_level4=1 eg4_level5=1
<region>sample=../Sample/Wave91.wav lokey=109 hikey=109 pitch_keycenter=66 tune=-3304 pan=0 eg2_cutoff=4864 eg2_sustain=4 eg2_time1=0 eg2_time2=0 eg2_time3=0.0489896 eg2_time4=0 eg2_time5=0 eg2_level1=0 eg2_level2=1 eg2_level3=0.9055118 eg2_level4=0.9055118 eg2_level5=1 eg3_amplitude=100 eg3_sustain=4 eg3_time1=0 eg3_time2=0 eg3_time3=0.0325562 eg3_time4=0.0185599 eg3_time5=0.0510104 eg3_level1=0 eg3_level2=1 eg3_level3=0.9117225 eg3_level4=0 eg3_level5=0 amplitude_cc16=83.4645669 ampeg_attack=0 ampeg_release=0.0510104 eg4_time1=0 eg4_time2=0 eg4_time3=0.0325562 eg4_time4=0.0185599 eg4_time5=0.0510104 eg4_level1=1 eg4_level2=1 eg4_level3=1 eg4_level4=1 eg4_level5=1
<region>sample=../Sample/Wave91.wav lokey=110 hikey=110 pitch_keycenter=66 tune=-3354 pan=0 eg2_cutoff=4864 eg2_sustain=4 eg2_time1=0 eg2_time2=0 eg2_time3=0.0489896 eg2_time4=0 eg2_time5=0 eg2_level1=0 eg2_level2=1 eg2_level3=0.9055118 eg2_level4=0.9055118 eg2_level5=1 eg3_amplitude=100 eg3_sustain=4 eg3_time1=0 eg3_time2=0 eg3_time3=0.0318443 eg3_time4=0.018154 eg3_time5=0.0498949 eg3_level1=0 eg3_level2=1 eg3_level3=0.9117225 eg3_level4=0 eg3_level5=0 amplitude_cc16=83.4645669 ampeg_attack=0 ampeg_release=0.0498949 eg4_time1=0 eg4_time2=0 eg4_time3=0.0318443 eg4_time4=0.018154 eg4_time5=0.0498949 eg4_level1=1 eg4_level2=1 eg4_level3=1 eg4_level4=1 eg4_level5=1
<region>sample=../Sample/Wave91.wav lokey=111 hikey=111 pitch_keycenter=66 tune=-3404 pan=0 eg2_cutoff=4864 eg2_sustain=4 eg2_time1=0 eg2_time2=0 eg2_time3=0.0489896 eg2_time4=0 eg2_time5=0 eg2_level1=0 eg2_level2=1 eg2_level3=0.9055118 eg2_level4=0.9055118 eg2_level5=1 eg3_amplitude=100 eg3_sustain=4 eg3_time1=0 eg3_time2=0 eg3_time3=0.0311479 eg3_time4=0.017757 eg3_time5=0.0488039 eg3_level1=0 eg3_level2=1 eg3_level3=0.9117225 eg3_level4=0 eg3_level5=0 amplitude_cc16=83.4645669 ampeg_attack=0 ampeg_release=0.0488039 eg4_time1=0 eg4_time2=0 eg4_time3=0.0311479 eg4_time4=0.017757 eg4_time5=0.0488039 eg4_level1=1 eg4_level2=1 eg4_level3=1 eg4_level4=1 eg4_level5=1
<region>sample=../Sample/Wave91.wav lokey=112 hikey=112 pitch_keycenter=66 tune=-3454 pan=0 eg2_cutoff=4864 eg2_sustain=4 eg2_time1=0 eg2_time2=0 eg2_time3=0.0489896 eg2_time4=0 eg2_time5=0 eg2_level1=0 eg2_level2=1 eg2_level3=0.9055118 eg2_level4=0.9055118 eg2_level5=1 eg3_amplitude=100 eg3_sustain=4 eg3_time1=0 eg3_time2=0 eg3_time3=0.0304668 eg3_time4=0.0173687 eg3_time5=0.0477367 eg3_level1=0 eg3_level2=1 eg3_level3=0.9117225 eg3_level4=0 eg3_level5=0 amplitude_cc16=83.4645669 ampeg_attack=0 ampeg_release=0.0477367 eg4_time1=0 eg4_time2=0 eg4_time3=0.0304668 eg4_time4=0.0173687 eg4_time5=0.0477367 eg4_level1=1 eg4_level2=1 eg4_level3=1 eg4_level4=1 eg4_level5=1
<region>sample=../Sample/Wave91.wav lokey=113 hikey=113 pitch_keycenter=66 tune=-3504 pan=0 eg2_cutoff=4864 eg2_sustain=4 eg2_time1=0 eg2_time2=0 eg2_time3=0.0489896 eg2_time4=0 eg2_time5=0 eg2_level1=0 eg2_level2=1 eg2_level3=0.9055118 eg2_level4=0.9055118 eg2_level5=1 eg3_amplitude=100 eg3_sustain=4 eg3_time1=0 eg3_time2=0 eg3_time3=0.0298006 eg3_time4=0.0169889 eg3_time5=0.0466928 eg3_level1=0 eg3_level2=1 eg3_level3=0.9117225 eg3_level4=0 eg3_level5=0 amplitude_cc16=83.4645669 ampeg_attack=0 ampeg_release=0.0466928 eg4_time1=0 eg4_time2=0 eg4_time3=0.0298006 eg4_time4=0.0169889 eg4_time5=0.0466928 eg4_level1=1 eg4_level2=1 eg4_level3=1 eg4_level4=1 eg4_level5=1
<region>sample=../Sample/Wave91.wav lokey=114 hikey=114 pitch_keycenter=66 tune=-3554 pan=0 eg2_cutoff=4864 eg2_sustain=4 eg2_time1=0 eg2_time2=0 eg2_time3=0.0489896 eg2_time4=0 eg2_time5=0 eg2_level1=0 eg2_level2=1 eg2_level3=0.9055118 eg2_level4=0.9055118 eg2_level5=1 eg3_amplitude=100 eg3_sustain=4 eg3_time1=0 eg3_time2=0 eg3_time3=0.029149 eg3_time4=0.0166175 eg3_time5=0.0456718 eg3_level1=0 eg3_level2=1 eg3_level3=0.9117225 eg3_level4=0 eg3_level5=0 amplitude_cc16=83.4645669 ampeg_attack=0 ampeg_release=0.0456718 eg4_time1=0 eg4_time2=0 eg4_time3=0.029149 eg4_time4=0.0166175 eg4_time5=0.0456718 eg4_level1=1 eg4_level2=1 eg4_level3=1 eg4_level4=1 eg4_level5=1
<region>sample=../Sample/Wave91.wav lokey=115 hikey=115 pitch_keycenter=66 tune=-3604 pan=0 eg2_cutoff=4864 eg2_sustain=4 eg2_time1=0 eg2_time2=0 eg2_time3=0.0489896 eg2_time4=0 eg2_time5=0 eg2_level1=0 eg2_level2=1 eg2_level3=0.9055118 eg2_level4=0.9055118 eg2_level5=1 eg3_amplitude=100 eg3_sustain=4 eg3_time1=0 eg3_time2=0 eg3_time3=0.0285116 eg3_time4=0.0162541 eg3_time5=0.0446731 eg3_level1=0 eg3_level2=1 eg3_level3=0.9117225 eg3_level4=0 eg3_level5=0 amplitude_cc16=83.4645669 ampeg_attack=0 ampeg_release=0.0446731 eg4_time1=0 eg4_time2=0 eg4_time3=0.0285116 eg4_time4=0.0162541 eg4_time5=0.0446731 eg4_level1=1 eg4_level2=1 eg4_level3=1 eg4_level4=1 eg4_level5=1
<region>sample=../Sample/Wave91.wav lokey=116 hikey=116 pitch_keycenter=66 tune=-3654 pan=0 eg2_cutoff=4864 eg2_sustain=4 eg2_time1=0 eg2_time2=0 eg2_time3=0.0489896 eg2_time4=0 eg2_time5=0 eg2_level1=0 eg2_level2=1 eg2_level3=0.9055118 eg2_level4=0.9055118 eg2_level5=1 eg3_amplitude=100 eg3_sustain=4 eg3_time1=0 eg3_time2=0 eg3_time3=0.0278881 eg3_time4=0.0158987 eg3_time5=0.0436963 eg3_level1=0 eg3_level2=1 eg3_level3=0.9117225 eg3_level4=0 eg3_level5=0 amplitude_cc16=83.4645669 ampeg_attack=0 ampeg_release=0.0436963 eg4_time1=0 eg4_time2=0 eg4_time3=0.0278881 eg4_time4=0.0158987 eg4_time5=0.0436963 eg4_level1=1 eg4_level2=1 eg4_level3=1 eg4_level4=1 eg4_level5=1
<region>sample=../Sample/Wave91.wav lokey=117 hikey=117 pitch_keycenter=66 tune=-3704 pan=0 eg2_cutoff=4864 eg2_sustain=4 eg2_time1=0 eg2_time2=0 eg2_time3=0.0489896 eg2_time4=0 eg2_time5=0 eg2_level1=0 eg2_level2=1 eg2_level3=0.9055118 eg2_level4=0.9055118 eg2_level5=1 eg3_amplitude=100 eg3_sustain=4 eg3_time1=0 eg3_time2=0 eg3_time3=0.0272783 eg3_time4=0.015551 eg3_time5=0.0427408 eg3_level1=0 eg3_level2=1 eg3_level3=0.9117225 eg3_level4=0 eg3_level5=0 amplitude_cc16=83.4645669 ampeg_attack=0 ampeg_release=0.0427408 eg4_time1=0 eg4_time2=0 eg4_time3=0.0272783 eg4_time4=0.015551 eg4_time5=0.0427408 eg4_level1=1 eg4_level2=1 eg4_level3=1 eg4_level4=1 eg4_level5=1
<region>sample=../Sample/Wave91.wav lokey=118 hikey=118 pitch_keycenter=66 tune=-3754 pan=0 eg2_cutoff=4864 eg2_sustain=4 eg2_time1=0 eg2_time2=0 eg2_time3=0.0489896 eg2_time4=0 eg2_time5=0 eg2_level1=0 eg2_level2=1 eg2_level3=0.9055118 eg2_level4=0.9055118 eg2_level5=1 eg3_amplitude=100 eg3_sustain=4 eg3_time1=0 eg3_time2=0 eg3_time3=0.0266818 eg3_time4=0.0152109 eg3_time5=0.0418061 eg3_level1=0 eg3_level2=1 eg3_level3=0.9117225 eg3_level4=0 eg3_level5=0 amplitude_cc16=83.4645669 ampeg_attack=0 ampeg_release=0.0418061 eg4_time1=0 eg4_time2=0 eg4_time3=0.0266818 eg4_time4=0.0152109 eg4_time5=0.0418061 eg4_level1=1 eg4_level2=1 eg4_level3=1 eg4_level4=1 eg4_level5=1
<region>sample=../Sample/Wave91.wav lokey=119 hikey=119 pitch_keycenter=66 tune=-3804 pan=0 eg2_cutoff=4864 eg2_sustain=4 eg2_time1=0 eg2_time2=0 eg2_time3=0.0489896 eg2_time4=0 eg2_time5=0 eg2_level1=0 eg2_level2=1 eg2_level3=0.9055118 eg2_level4=0.9055118 eg2_level5=1 eg3_amplitude=100 eg3_sustain=4 eg3_time1=0 eg3_time2=0 eg3_time3=0.0260983 eg3_time4=0.0148783 eg3_time5=0.040892 eg3_level1=0 eg3_level2=1 eg3_level3=0.9117225 eg3_level4=0 eg3_level5=0 amplitude_cc16=83.4645669 ampeg_attack=0 ampeg_release=0.040892 eg4_time1=0 eg4_time2=0 eg4_time3=0.0260983 eg4_time4=0.0148783 eg4_time5=0.040892 eg4_level1=1 eg4_level2=1 eg4_level3=1 eg4_level4=1 eg4_level5=1
<region>sample=../Sample/Wave91.wav lokey=120 hikey=120 pitch_keycenter=66 tune=-3854 pan=0 eg2_cutoff=4864 eg2_sustain=4 eg2_time1=0 eg2_time2=0 eg2_time3=0.0489896 eg2_time4=0 eg2_time5=0 eg2_level1=0 eg2_level2=1 eg2_level3=0.9055118 eg2_level4=0.9055118 eg2_level5=1 eg3_amplitude=100 eg3_sustain=4 eg3_time1=0 eg3_time2=0 eg3_time3=0.0255277 eg3_time4=0.014553 eg3_time5=0.0399978 eg3_level1=0 eg3_level2=1 eg3_level3=0.9117225 eg3_level4=0 eg3_level5=0 amplitude_cc16=83.4645669 ampeg_attack=0 ampeg_release=0.0399978 eg4_time1=0 eg4_time2=0 eg4_time3=0.0255277 eg4_time4=0.014553 eg4_time5=0.0399978 eg4_level1=1 eg4_level2=1 eg4_level3=1 eg4_level4=1 eg4_level5=1
<region>sample=../Sample/Wave91.wav lokey=121 hikey=121 pitch_keycenter=66 tune=-3904 pan=0 eg2_cutoff=4864 eg2_sustain=4 eg2_time1=0 eg2_time2=0 eg2_time3=0.0489896 eg2_time4=0 eg2_time5=0 eg2_level1=0 eg2_level2=1 eg2_level3=0.9055118 eg2_level4=0.9055118 eg2_level5=1 eg3_amplitude=100 eg3_sustain=4 eg3_time1=0 eg3_time2=0 eg3_time3=0.0249694 eg3_time4=0.0142348 eg3_time5=0.0391232 eg3_level1=0 eg3_level2=1 eg3_level3=0.9117225 eg3_level4=0 eg3_level5=0 amplitude_cc16=83.4645669 ampeg_attack=0 ampeg_release=0.0391232 eg4_time1=0 eg4_time2=0 eg4_time3=0.0249694 eg4_time4=0.0142348 eg4_time5=0.0391232 eg4_level1=1 eg4_level2=1 eg4_level3=1 eg4_level4=1 eg4_level5=1
<region>sample=../Sample/Wave91.wav lokey=122 hikey=122 pitch_keycenter=66 tune=-3954 pan=0 eg2_cutoff=4864 eg2_sustain=4 eg2_time1=0 eg2_time2=0 eg2_time3=0.0489896 eg2_time4=0 eg2_time5=0 eg2_level1=0 eg2_level2=1 eg2_level3=0.9055118 eg2_level4=0.9055118 eg2_level5=1 eg3_amplitude=100 eg3_sustain=4 eg3_time1=0 eg3_time2=0 eg3_time3=0.0244234 eg3_time4=0.0139235 eg3_time5=0.0382677 eg3_level1=0 eg3_level2=1 eg3_level3=0.9117225 eg3_level4=0 eg3_level5=0 amplitude_cc16=83.4645669 ampeg_attack=0 ampeg_release=0.0382677 eg4_time1=0 eg4_time2=0 eg4_time3=0.0244234 eg4_time4=0.0139235 eg4_time5=0.0382677 eg4_level1=1 eg4_level2=1 eg4_level3=1 eg4_level4=1 eg4_level5=1
<region>sample=../Sample/Wave91.wav lokey=123 hikey=123 pitch_keycenter=66 tune=-4004 pan=0 eg2_cutoff=4864 eg2_sustain=4 eg2_time1=0 eg2_time2=0 eg2_time3=0.0489896 eg2_time4=0 eg2_time5=0 eg2_level1=0 eg2_level2=1 eg2_level3=0.9055118 eg2_level4=0.9055118 eg2_level5=1 eg3_amplitude=100 eg3_sustain=4 eg3_time1=0 eg3_time2=0 eg3_time3=0.0238894 eg3_time4=0.013619 eg3_time5=0.0374309 eg3_level1=0 eg3_level2=1 eg3_level3=0.9117225 eg3_level4=0 eg3_level5=0 amplitude_cc16=83.4645669 ampeg_attack=0 ampeg_release=0.0374309 eg4_time1=0 eg4_time2=0 eg4_time3=0.0238894 eg4_time4=0.013619 eg4_time5=0.0374309 eg4_level1=1 eg4_level2=1 eg4_level3=1 eg4_level4=1 eg4_level5=1
<region>sample=../Sample/Wave91.wav lokey=124 hikey=124 pitch_keycenter=66 tune=-4054 pan=0 eg2_cutoff=4864 eg2_sustain=4 eg2_time1=0 eg2_time2=0 eg2_time3=0.0489896 eg2_time4=0 eg2_time5=0 eg2_level1=0 eg2_level2=1 eg2_level3=0.9055118 eg2_level4=0.9055118 eg2_level5=1 eg3_amplitude=100 eg3_sustain=4 eg3_time1=0 eg3_time2=0 eg3_time3=0.023367 eg3_time4=0.0133212 eg3_time5=0.0366124 eg3_level1=0 eg3_level2=1 eg3_level3=0.9117225 eg3_level4=0 eg3_level5=0 amplitude_cc16=83.4645669 ampeg_attack=0 ampeg_release=0.0366124 eg4_time1=0 eg4_time2=0 eg4_time3=0.023367 eg4_time4=0.0133212 eg4_time5=0.0366124 eg4_level1=1 eg4_level2=1 eg4_level3=1 eg4_level4=1 eg4_level5=1
<region>sample=../Sample/Wave91.wav lokey=125 hikey=125 pitch_keycenter=66 tune=-4104 pan=0 eg2_cutoff=4864 eg2_sustain=4 eg2_time1=0 eg2_time2=0 eg2_time3=0.0489896 eg2_time4=0 eg2_time5=0 eg2_level1=0 eg2_level2=1 eg2_level3=0.9055118 eg2_level4=0.9055118 eg2_level5=1 eg3_amplitude=100 eg3_sustain=4 eg3_time1=0 eg3_time2=0 eg3_time3=0.022856 eg3_time4=0.0130299 eg3_time5=0.0358118 eg3_level1=0 eg3_level2=1 eg3_level3=0.9117225 eg3_level4=0 eg3_level5=0 amplitude_cc16=83.4645669 ampeg_attack=0 ampeg_release=0.0358118 eg4_time1=0 eg4_time2=0 eg4_time3=0.022856 eg4_time4=0.0130299 eg4_time5=0.0358118 eg4_level1=1 eg4_level2=1 eg4_level3=1 eg4_level4=1 eg4_level5=1
<region>sample=../Sample/Wave91.wav lokey=126 hikey=126 pitch_keycenter=66 tune=-4154 pan=0 eg2_cutoff=4864 eg2_sustain=4 eg2_time1=0 eg2_time2=0 eg2_time3=0.0489896 eg2_time4=0 eg2_time5=0 eg2_level1=0 eg2_level2=1 eg2_level3=0.9055118 eg2_level4=0.9055118 eg2_level5=1 eg3_amplitude=100 eg3_sustain=4 eg3_time1=0 eg3_time2=0 eg3_time3=0.0223562 eg3_time4=0.012745 eg3_time5=0.0350287 eg3_level1=0 eg3_level2=1 eg3_level3=0.9117225 eg3_level4=0 eg3_level5=0 amplitude_cc16=83.4645669 ampeg_attack=0 ampeg_release=0.0350287 eg4_time1=0 eg4_time2=0 eg4_time3=0.0223562 eg4_time4=0.012745 eg4_time5=0.0350287 eg4_level1=1 eg4_level2=1 eg4_level3=1 eg4_level4=1 eg4_level5=1
<region>sample=../Sample/Wave91.wav lokey=127 hikey=127 pitch_keycenter=66 tune=-4204 pan=0 eg2_cutoff=4864 eg2_sustain=4 eg2_time1=0 eg2_time2=0 eg2_time3=0.0489896 eg2_time4=0 eg2_time5=0 eg2_level1=0 eg2_level2=1 eg2_level3=0.9055118 eg2_level4=0.9055118 eg2_level5=1 eg3_amplitude=100 eg3_sustain=4 eg3_time1=0 eg3_time2=0 eg3_time3=0.0218674 eg3_time4=0.0124663 eg3_time5=0.0342627 eg3_level1=0 eg3_level2=1 eg3_level3=0.9117225 eg3_level4=0 eg3_level5=0 amplitude_cc16=83.4645669 ampeg_attack=0 ampeg_release=0.0342627 eg4_time1=0 eg4_time2=0 eg4_time3=0.0218674 eg4_time4=0.0124663 eg4_time5=0.0342627 eg4_level1=1 eg4_level2=1 eg4_level3=1 eg4_level4=1 eg4_level5=1
<curve>curve_index=77 v000=-1 v009=-0.2318432 v017=-0.1682223 v025=-0.1266754 v033=-0.0943052 v041=-0.0667365 v049=-0.0418818 v057=-0.0185085 v065=0.004257 v073=0.0271599 v081=0.0509737 v089=0.0766712 v097=0.1057219 v105=0.1408034 v113=0.1881379 v121=0.2706334 v127=1
<curve>curve_index=133 v000=-0.4724409 v127=0.5275591
<curve>curve_index=201 v000=-1 v127=0
<curve>curve_index=202 v000=-1 v001=-0.9997494 v009=-0.991513 v017=-0.9762171 v025=-0.9551519 v033=-0.92858 v041=-0.8964065 v049=-0.8583211 v057=-0.8138437 v065=-0.7623383 v073=-0.7030102 v081=-0.6348936 v089=-0.5568321 v097=-0.467451 v105=-0.3651233 v113=-0.2479268 v121=-0.1135922 v127=0
<curve>curve_index=203 v000=-1 v001=-1 v009=-0.9999675 v017=-0.9996583 v025=-0.9985752 v033=-0.9960114 v041=-0.9910577 v049=-0.9825829 v057=-0.9691807 v065=-0.9490722 v073=-0.9199401 v081=-0.8786619 v089=-0.82088 v097=-0.740303 v105=-0.6275479 v113=-0.4681713 v121=-0.2392198 v127=0
<curve>curve_index=204 v000=-1 v001=-0.9323558 v009=-0.741349 v017=-0.6263141 v025=-0.5373342 v033=-0.4635977 v041=-0.4002693 v049=-0.3446331 v057=-0.2949675 v065=-0.2500953 v073=-0.2091682 v081=-0.1715511 v089=-0.1367543 v097=-0.1043909 v105=-0.0741496 v113=-0.0457759 v121=-0.0190586 v127=0
<curve>curve_index=205 v000=-1 v001=-0.6880006 v009=-0.4427647 v017=-0.3466618 v025=-0.2834429 v033=-0.2361238 v041=-0.1983568 v049=-0.1670059 v057=-0.1402727 v065=-0.1170246 v073=-0.0964998 v081=-0.0781602 v089=-0.061612 v097=-0.0465575 v105=-0.0327669 v113=-0.0200585 v121=-0.0082866 v127=0
<curve>curve_index=206 v000=-1 v001=-0.9992164 v009=-0.9919382 v017=-0.9822354 v025=-0.9686809 v033=-0.9484937 v041=-0.9155493 v049=-0.8540328 v057=-0.7175582 v065=-0.4426581 v073=-0.2171001 v081=-0.1176907 v089=-0.0699434 v097=-0.0428826 v105=-0.0256514 v113=-0.0137704 v121=-0.0051009 v127=0
<curve>curve_index=207 v000=-1 v001=-0.9416361 v009=-0.7228567 v017=-0.6420575 v025=-0.5979344 v033=-0.568666 v041=-0.5466723 v049=-0.5285483 v057=-0.5124439 v065=-0.497147 v073=-0.4816686 v081=-0.4649713 v089=-0.4456677 v097=-0.4214805 v105=-0.3879226 v113=-0.3341321 v121=-0.2242261 v127=0
